<?xml version="1.0" encoding="utf-8"?>
<!-- Generator: Adobe Illustrator 22.0.1, SVG Export Plug-In . SVG Version: 6.00 Build 0)  -->
<svg version="1.1" id="Layer_1" xmlns="http://www.w3.org/2000/svg" xmlns:xlink="http://www.w3.org/1999/xlink" x="0px" y="0px"
	 viewBox="0 0 1024 1024" style="enable-background:new 0 0 1024 1024;" xml:space="preserve">
<style type="text/css">
	.st0{display:none;fill:url(#SVGID_1_);}
	.st1{fill:#FAFBFB;}
	.st2{fill:#56C9EC;}
	.st3{clip-path:url(#SVGID_3_);fill:#5FACCE;}
	.st4{clip-path:url(#SVGID_3_);fill:#5FADCE;}
	.st5{clip-path:url(#SVGID_3_);fill:#60AECE;}
	.st6{clip-path:url(#SVGID_3_);fill:#60AECF;}
	.st7{clip-path:url(#SVGID_3_);fill:#60AFCF;}
	.st8{clip-path:url(#SVGID_3_);fill:#61B0CF;}
	.st9{clip-path:url(#SVGID_3_);fill:#62B1D0;}
	.st10{clip-path:url(#SVGID_3_);fill:#62B2D0;}
	.st11{clip-path:url(#SVGID_3_);fill:#63B3D0;}
	.st12{clip-path:url(#SVGID_3_);fill:#63B4D1;}
	.st13{clip-path:url(#SVGID_3_);fill:#64B5D1;}
	.st14{clip-path:url(#SVGID_3_);fill:#64B6D1;}
	.st15{clip-path:url(#SVGID_3_);fill:#64B6D2;}
	.st16{clip-path:url(#SVGID_3_);fill:#65B7D2;}
	.st17{clip-path:url(#SVGID_3_);fill:#65B8D2;}
	.st18{clip-path:url(#SVGID_3_);fill:#66B8D2;}
	.st19{clip-path:url(#SVGID_3_);fill:#66B9D3;}
	.st20{clip-path:url(#SVGID_3_);fill:#66BAD3;}
	.st21{clip-path:url(#SVGID_3_);fill:#67BAD3;}
	.st22{clip-path:url(#SVGID_3_);fill:#67BBD3;}
	.st23{clip-path:url(#SVGID_3_);fill:#67BCD4;}
	.st24{clip-path:url(#SVGID_3_);fill:#68BCD4;}
	.st25{clip-path:url(#SVGID_3_);fill:#3C69B2;}
	.st26{clip-path:url(#SVGID_3_);fill:#3D6AB3;}
	.st27{clip-path:url(#SVGID_3_);fill:#3D6BB3;}
	.st28{clip-path:url(#SVGID_3_);fill:#3E6BB3;}
	.st29{clip-path:url(#SVGID_3_);fill:#3E6CB3;}
	.st30{clip-path:url(#SVGID_3_);fill:#3E6DB3;}
	.st31{clip-path:url(#SVGID_3_);fill:#3F6DB4;}
	.st32{clip-path:url(#SVGID_3_);fill:#3F6EB4;}
	.st33{clip-path:url(#SVGID_3_);fill:#406FB4;}
	.st34{clip-path:url(#SVGID_3_);fill:#4070B4;}
	.st35{clip-path:url(#SVGID_3_);fill:#4171B5;}
	.st36{clip-path:url(#SVGID_3_);fill:#4172B5;}
	.st37{clip-path:url(#SVGID_3_);fill:#4272B5;}
	.st38{clip-path:url(#SVGID_3_);fill:#4273B5;}
	.st39{clip-path:url(#SVGID_3_);fill:#4273B6;}
	.st40{clip-path:url(#SVGID_3_);fill:#4274B6;}
	.st41{clip-path:url(#SVGID_3_);fill:#4375B6;}
	.st42{clip-path:url(#SVGID_3_);fill:#4376B7;}
	.st43{clip-path:url(#SVGID_3_);fill:#4476B7;}
	.st44{clip-path:url(#SVGID_3_);fill:#4477B7;}
	.st45{clip-path:url(#SVGID_3_);fill:#4578B8;}
	.st46{clip-path:url(#SVGID_3_);fill:#4579B8;}
	.st47{clip-path:url(#SVGID_3_);fill:#467AB8;}
	.st48{clip-path:url(#SVGID_3_);fill:#467AB9;}
	.st49{clip-path:url(#SVGID_3_);fill:#467BB9;}
	.st50{clip-path:url(#SVGID_3_);fill:#477CB9;}
	.st51{clip-path:url(#SVGID_3_);fill:#477DBA;}
	.st52{clip-path:url(#SVGID_3_);fill:#487EBA;}
	.st53{clip-path:url(#SVGID_3_);fill:#487FBB;}
	.st54{clip-path:url(#SVGID_3_);fill:#4980BB;}
	.st55{clip-path:url(#SVGID_3_);fill:#4981BB;}
	.st56{clip-path:url(#SVGID_3_);fill:#4A82BC;}
	.st57{clip-path:url(#SVGID_3_);fill:#4A83BC;}
	.st58{clip-path:url(#SVGID_3_);fill:#4B83BD;}
	.st59{clip-path:url(#SVGID_3_);fill:#4B84BD;}
	.st60{clip-path:url(#SVGID_3_);fill:#4B85BD;}
	.st61{clip-path:url(#SVGID_3_);fill:#4C85BD;}
	.st62{clip-path:url(#SVGID_3_);fill:#4C86BE;}
	.st63{clip-path:url(#SVGID_3_);fill:#4C87BE;}
	.st64{clip-path:url(#SVGID_3_);fill:#4D88BE;}
	.st65{clip-path:url(#SVGID_3_);fill:#4D88BF;}
	.st66{clip-path:url(#SVGID_3_);fill:#4D89BF;}
	.st67{clip-path:url(#SVGID_3_);fill:#4E8ABF;}
	.st68{clip-path:url(#SVGID_3_);fill:#4E8AC0;}
	.st69{clip-path:url(#SVGID_3_);fill:#4E8BC0;}
	.st70{clip-path:url(#SVGID_3_);fill:#4F8BC0;}
	.st71{clip-path:url(#SVGID_3_);fill:#4F8CC0;}
	.st72{clip-path:url(#SVGID_3_);fill:#4F8DC1;}
	.st73{clip-path:url(#SVGID_3_);fill:#508EC1;}
	.st74{clip-path:url(#SVGID_3_);fill:#508FC2;}
	.st75{clip-path:url(#SVGID_3_);fill:#5190C2;}
	.st76{clip-path:url(#SVGID_3_);fill:#5191C2;}
	.st77{clip-path:url(#SVGID_3_);fill:#5191C3;}
	.st78{clip-path:url(#SVGID_3_);fill:#5292C3;}
	.st79{clip-path:url(#SVGID_3_);fill:#5293C3;}
	.st80{clip-path:url(#SVGID_3_);fill:#5293C4;}
	.st81{clip-path:url(#SVGID_3_);fill:#5394C4;}
	.st82{clip-path:url(#SVGID_3_);fill:#5395C4;}
	.st83{clip-path:url(#SVGID_3_);fill:#5496C5;}
	.st84{clip-path:url(#SVGID_3_);fill:#5497C5;}
	.st85{clip-path:url(#SVGID_3_);fill:#5598C6;}
	.st86{clip-path:url(#SVGID_3_);fill:#5599C6;}
	.st87{clip-path:url(#SVGID_3_);fill:#569AC7;}
	.st88{clip-path:url(#SVGID_3_);fill:#569BC7;}
	.st89{clip-path:url(#SVGID_3_);fill:#569CC7;}
	.st90{clip-path:url(#SVGID_3_);fill:#579CC8;}
	.st91{clip-path:url(#SVGID_3_);fill:#579DC8;}
	.st92{clip-path:url(#SVGID_3_);fill:#579EC8;}
	.st93{clip-path:url(#SVGID_3_);fill:#589EC8;}
	.st94{clip-path:url(#SVGID_3_);fill:#589FC9;}
	.st95{clip-path:url(#SVGID_3_);fill:#58A0C9;}
	.st96{clip-path:url(#SVGID_3_);fill:#59A0C9;}
	.st97{clip-path:url(#SVGID_3_);fill:#59A1CA;}
	.st98{clip-path:url(#SVGID_3_);fill:#59A2CA;}
	.st99{clip-path:url(#SVGID_3_);fill:#5AA2CA;}
	.st100{clip-path:url(#SVGID_3_);fill:#5AA3CA;}
	.st101{clip-path:url(#SVGID_3_);fill:#5AA4CB;}
	.st102{clip-path:url(#SVGID_3_);fill:#5BA4CB;}
	.st103{clip-path:url(#SVGID_3_);fill:#5BA5CB;}
	.st104{clip-path:url(#SVGID_3_);fill:#5CA6CB;}
	.st105{clip-path:url(#SVGID_3_);fill:#5CA6CC;}
	.st106{clip-path:url(#SVGID_3_);fill:#5CA7CC;}
	.st107{clip-path:url(#SVGID_3_);fill:#5DA8CC;}
	.st108{clip-path:url(#SVGID_3_);fill:#5DA9CD;}
	.st109{clip-path:url(#SVGID_3_);fill:#5EAACD;}
	.st110{clip-path:url(#SVGID_3_);fill:#5EABCD;}
	.st111{clip-path:url(#SVGID_3_);fill:#68BDD4;}
	.st112{clip-path:url(#SVGID_3_);fill:#69BED4;}
	.st113{clip-path:url(#SVGID_3_);fill:#69BFD5;}
	.st114{clip-path:url(#SVGID_3_);fill:#6AC0D5;}
	.st115{clip-path:url(#SVGID_3_);fill:#6AC1D5;}
	.st116{clip-path:url(#SVGID_3_);fill:#6BC2D6;}
	.st117{clip-path:url(#SVGID_3_);fill:#6BC3D6;}
	.st118{clip-path:url(#SVGID_3_);fill:#6CC4D6;}
	.st119{clip-path:url(#SVGID_3_);fill:#6CC4D7;}
	.st120{clip-path:url(#SVGID_3_);fill:#6DC5D7;}
	.st121{clip-path:url(#SVGID_3_);fill:#6DC6D7;}
	.st122{clip-path:url(#SVGID_3_);fill:#6DC7D8;}
	.st123{clip-path:url(#SVGID_3_);fill:#6EC8D8;}
	.st124{clip-path:url(#SVGID_3_);fill:#6EC9D8;}
	.st125{clip-path:url(#SVGID_3_);fill:#6ECAD9;}
	.st126{clip-path:url(#SVGID_3_);fill:#6ECBD9;}
	.st127{clip-path:url(#SVGID_3_);fill:#6ECCDA;}
	.st128{clip-path:url(#SVGID_5_);fill:#3C69B2;}
	.st129{clip-path:url(#SVGID_5_);fill:#3D6AB3;}
	.st130{clip-path:url(#SVGID_5_);fill:#3D6BB3;}
	.st131{clip-path:url(#SVGID_5_);fill:#3E6BB3;}
	.st132{clip-path:url(#SVGID_5_);fill:#3E6CB3;}
	.st133{clip-path:url(#SVGID_5_);fill:#3E6DB3;}
	.st134{clip-path:url(#SVGID_5_);fill:#3F6DB4;}
	.st135{clip-path:url(#SVGID_5_);fill:#3F6EB4;}
	.st136{clip-path:url(#SVGID_5_);fill:#406FB4;}
	.st137{clip-path:url(#SVGID_5_);fill:#4070B4;}
	.st138{clip-path:url(#SVGID_5_);fill:#4171B5;}
	.st139{clip-path:url(#SVGID_5_);fill:#4172B5;}
	.st140{clip-path:url(#SVGID_5_);fill:#4272B5;}
	.st141{clip-path:url(#SVGID_5_);fill:#4273B5;}
	.st142{clip-path:url(#SVGID_5_);fill:#4273B6;}
	.st143{clip-path:url(#SVGID_5_);fill:#4274B6;}
	.st144{clip-path:url(#SVGID_5_);fill:#4375B6;}
	.st145{clip-path:url(#SVGID_5_);fill:#4376B7;}
	.st146{clip-path:url(#SVGID_5_);fill:#4476B7;}
	.st147{clip-path:url(#SVGID_5_);fill:#4477B7;}
	.st148{clip-path:url(#SVGID_5_);fill:#4578B8;}
	.st149{clip-path:url(#SVGID_5_);fill:#4579B8;}
	.st150{clip-path:url(#SVGID_5_);fill:#467AB8;}
	.st151{clip-path:url(#SVGID_5_);fill:#467AB9;}
	.st152{clip-path:url(#SVGID_5_);fill:#467BB9;}
	.st153{clip-path:url(#SVGID_5_);fill:#477CB9;}
	.st154{clip-path:url(#SVGID_5_);fill:#477DBA;}
	.st155{clip-path:url(#SVGID_5_);fill:#487EBA;}
	.st156{clip-path:url(#SVGID_5_);fill:#487FBB;}
	.st157{clip-path:url(#SVGID_5_);fill:#4980BB;}
	.st158{clip-path:url(#SVGID_5_);fill:#4981BB;}
	.st159{clip-path:url(#SVGID_5_);fill:#4A82BC;}
	.st160{clip-path:url(#SVGID_5_);fill:#4A83BC;}
	.st161{clip-path:url(#SVGID_5_);fill:#4B83BD;}
	.st162{clip-path:url(#SVGID_5_);fill:#4B84BD;}
	.st163{clip-path:url(#SVGID_5_);fill:#4B85BD;}
	.st164{clip-path:url(#SVGID_5_);fill:#4C85BD;}
	.st165{clip-path:url(#SVGID_5_);fill:#4C86BE;}
	.st166{clip-path:url(#SVGID_5_);fill:#4C87BE;}
	.st167{clip-path:url(#SVGID_5_);fill:#4D88BE;}
	.st168{clip-path:url(#SVGID_5_);fill:#4D88BF;}
	.st169{clip-path:url(#SVGID_5_);fill:#4D89BF;}
	.st170{clip-path:url(#SVGID_5_);fill:#4E8ABF;}
	.st171{clip-path:url(#SVGID_5_);fill:#4E8AC0;}
	.st172{clip-path:url(#SVGID_5_);fill:#4E8BC0;}
	.st173{clip-path:url(#SVGID_5_);fill:#4F8BC0;}
	.st174{clip-path:url(#SVGID_5_);fill:#4F8CC0;}
	.st175{clip-path:url(#SVGID_5_);fill:#4F8DC1;}
	.st176{clip-path:url(#SVGID_5_);fill:#508EC1;}
	.st177{clip-path:url(#SVGID_5_);fill:#508FC2;}
	.st178{clip-path:url(#SVGID_5_);fill:#5190C2;}
	.st179{clip-path:url(#SVGID_5_);fill:#5191C2;}
	.st180{clip-path:url(#SVGID_5_);fill:#5191C3;}
	.st181{clip-path:url(#SVGID_5_);fill:#5292C3;}
	.st182{clip-path:url(#SVGID_5_);fill:#5293C3;}
	.st183{clip-path:url(#SVGID_5_);fill:#5293C4;}
	.st184{clip-path:url(#SVGID_5_);fill:#5394C4;}
	.st185{clip-path:url(#SVGID_5_);fill:#5395C4;}
	.st186{clip-path:url(#SVGID_5_);fill:#5496C5;}
	.st187{clip-path:url(#SVGID_5_);fill:#5497C5;}
	.st188{clip-path:url(#SVGID_5_);fill:#5598C6;}
	.st189{clip-path:url(#SVGID_5_);fill:#5599C6;}
	.st190{clip-path:url(#SVGID_5_);fill:#569AC7;}
	.st191{clip-path:url(#SVGID_5_);fill:#569BC7;}
	.st192{clip-path:url(#SVGID_5_);fill:#569CC7;}
	.st193{clip-path:url(#SVGID_5_);fill:#579CC8;}
	.st194{clip-path:url(#SVGID_5_);fill:#579DC8;}
	.st195{clip-path:url(#SVGID_5_);fill:#579EC8;}
	.st196{clip-path:url(#SVGID_5_);fill:#589EC8;}
	.st197{clip-path:url(#SVGID_5_);fill:#589FC9;}
	.st198{clip-path:url(#SVGID_5_);fill:#58A0C9;}
	.st199{clip-path:url(#SVGID_5_);fill:#59A0C9;}
	.st200{clip-path:url(#SVGID_5_);fill:#59A1CA;}
	.st201{clip-path:url(#SVGID_5_);fill:#59A2CA;}
	.st202{clip-path:url(#SVGID_5_);fill:#5AA2CA;}
	.st203{clip-path:url(#SVGID_5_);fill:#5AA3CA;}
	.st204{clip-path:url(#SVGID_5_);fill:#5AA4CB;}
	.st205{clip-path:url(#SVGID_5_);fill:#5BA4CB;}
	.st206{clip-path:url(#SVGID_5_);fill:#5BA5CB;}
	.st207{clip-path:url(#SVGID_5_);fill:#5CA6CB;}
	.st208{clip-path:url(#SVGID_5_);fill:#5CA6CC;}
	.st209{clip-path:url(#SVGID_5_);fill:#5CA7CC;}
	.st210{clip-path:url(#SVGID_5_);fill:#5DA8CC;}
	.st211{clip-path:url(#SVGID_5_);fill:#5DA9CD;}
	.st212{clip-path:url(#SVGID_5_);fill:#5EAACD;}
	.st213{clip-path:url(#SVGID_5_);fill:#5EABCD;}
	.st214{clip-path:url(#SVGID_5_);fill:#5FACCE;}
	.st215{clip-path:url(#SVGID_5_);fill:#5FADCE;}
	.st216{clip-path:url(#SVGID_5_);fill:#60AECE;}
	.st217{clip-path:url(#SVGID_5_);fill:#60AECF;}
	.st218{clip-path:url(#SVGID_5_);fill:#60AFCF;}
	.st219{clip-path:url(#SVGID_5_);fill:#61B0CF;}
	.st220{clip-path:url(#SVGID_5_);fill:#62B1D0;}
	.st221{clip-path:url(#SVGID_5_);fill:#62B2D0;}
	.st222{clip-path:url(#SVGID_5_);fill:#63B3D0;}
	.st223{clip-path:url(#SVGID_5_);fill:#63B4D1;}
	.st224{clip-path:url(#SVGID_5_);fill:#64B5D1;}
	.st225{clip-path:url(#SVGID_5_);fill:#64B6D1;}
	.st226{clip-path:url(#SVGID_5_);fill:#64B6D2;}
	.st227{clip-path:url(#SVGID_5_);fill:#65B7D2;}
	.st228{clip-path:url(#SVGID_5_);fill:#65B8D2;}
	.st229{clip-path:url(#SVGID_5_);fill:#66B8D2;}
	.st230{clip-path:url(#SVGID_5_);fill:#66B9D3;}
	.st231{clip-path:url(#SVGID_5_);fill:#66BAD3;}
	.st232{clip-path:url(#SVGID_5_);fill:#67BAD3;}
	.st233{clip-path:url(#SVGID_5_);fill:#67BBD3;}
	.st234{clip-path:url(#SVGID_5_);fill:#67BCD4;}
	.st235{clip-path:url(#SVGID_5_);fill:#68BCD4;}
	.st236{clip-path:url(#SVGID_5_);fill:#68BDD4;}
	.st237{clip-path:url(#SVGID_5_);fill:#69BED4;}
	.st238{clip-path:url(#SVGID_5_);fill:#69BFD5;}
	.st239{clip-path:url(#SVGID_5_);fill:#6AC0D5;}
	.st240{clip-path:url(#SVGID_5_);fill:#6AC1D5;}
	.st241{clip-path:url(#SVGID_5_);fill:#6BC2D6;}
	.st242{clip-path:url(#SVGID_5_);fill:#6BC3D6;}
	.st243{clip-path:url(#SVGID_5_);fill:#6CC4D6;}
	.st244{clip-path:url(#SVGID_5_);fill:#6CC4D7;}
	.st245{clip-path:url(#SVGID_5_);fill:#6DC5D7;}
	.st246{clip-path:url(#SVGID_5_);fill:#6DC6D7;}
	.st247{clip-path:url(#SVGID_5_);fill:#6DC7D8;}
	.st248{clip-path:url(#SVGID_5_);fill:#6EC8D8;}
	.st249{clip-path:url(#SVGID_5_);fill:#6EC9D8;}
	.st250{clip-path:url(#SVGID_5_);fill:#6ECAD9;}
	.st251{clip-path:url(#SVGID_5_);fill:#6ECBD9;}
	.st252{clip-path:url(#SVGID_5_);fill:#6ECCDA;}
</style>
<linearGradient id="SVGID_1_" gradientUnits="userSpaceOnUse" x1="512.5843" y1="-16.764" x2="512.5843" y2="1032.7882">
	<stop  offset="0" style="stop-color:#010101"/>
	<stop  offset="1" style="stop-color:#222221"/>
</linearGradient>
<rect x="-12.2" y="-16.8" class="st0" width="1049.6" height="1049.6"/>
<g>
	<path class="st1" d="M410.7,851.5c48.4-60.8,141.6-64.9,191.6-67.1c3.2-0.1,6.2-0.3,9-0.4c23.3-1.2,59.2,4.9,93.8,10.8
		c51,8.7,99.2,16.9,109.4,3.2c2.9-3.8,2.6-9.2-0.6-15.9c-36.6-74.9-57.4-156.6-61.7-243c-1.5-30.2,22.2-83.9,43.1-131.3
		c22.7-51.6,42.3-96.1,31.5-109.3c-3-3.7-8.3-4.8-15.8-3.1c-64.1,14.1-134.4,12.3-203.3-5.2c-66.6-16.9-127.2-47.1-175.3-87.4
		c-43.3-36.2-57.7-47-63.5-43.6c-4.5,2.6-2.7,12.7,0.5,31.2c6.1,34.9,16.3,93.4-4.3,164.8c-5.3,18.6-47.1,32.5-87.5,46
		c-43.4,14.5-84.5,28.2-84.1,47.7c0,0.4,0,0.7,0,1.1c0.9,19,18.1,40,37.9,64.3c22.3,27.3,47.6,58.3,60.4,97.1
		c12.3,37.3,22.8,77.7,32.1,113.3c20,76.6,35.7,137.1,59.8,142.2C392.3,868.6,401.1,863.6,410.7,851.5z M812.4,782.8
		c3,6.2,3.3,10.8,0.8,14.1c-9.6,12.8-59.5,4.4-107.7-3.9c-8.7-1.5-17.4-3-26-4.3c5.8,0.9,11.6,1.8,17.4,2.7
		c50.7,8,98.6,15.6,109.5,1.5c3-3.9,3-9.2,0.1-15.8c-21.3-48.2-36.6-99-45.9-151.9C770.8,680.3,788.1,733.1,812.4,782.8z
		 M410.5,844.1c-9,10.8-17.1,15.2-24.7,13.5c-23.3-5.1-40-67.5-59.3-139.7c-8.8-32.9-17.9-66.9-28.7-99.9
		c10.3,31.1,19.1,63.1,27.6,94.1c19.8,71.9,36.9,134.1,61.6,139.7c8.2,1.9,16.7-2.3,26-12.8c46.3-52.7,133.5-56.5,180.3-58.5
		c3.5-0.2,6.8-0.3,9.9-0.4c7.2-0.4,15.5-0.1,24.5,0.6c-7.5-0.5-14.4-0.7-20.5-0.4c-2.9,0.1-6.1,0.3-9.4,0.4
		C549.1,782.8,458.4,786.7,410.5,844.1z M411.7,837.8c-8.8,10-16.7,14-24.3,12.3c-23.6-5.4-40.6-67.1-60.3-138.5
		c-8.3-30-16.8-61-26.7-91.2c9.4,28.2,17.6,57.2,25.6,85.4c20.2,71.1,37.6,132.5,62.5,138.5c8.1,2,16.5-1.8,25.6-11.6
		c45.3-48.7,129.4-52.3,174.5-54.2c3.7-0.2,7.1-0.3,10.3-0.5c8.6-0.4,18.7,0,29.7,0.9c-9.5-0.7-18.2-1-25.7-0.7
		c-3,0.2-6.3,0.3-9.8,0.4C546.1,780.7,458.5,784.5,411.7,837.8z M412.9,831.5c-8.6,9.3-16.4,12.9-23.9,11.1
		c-23.9-5.8-41.2-66.7-61.2-137.3c-7.8-27.4-15.8-55.7-24.9-83.2c8.6,25.6,16.3,51.9,23.7,77.4c20.5,70.3,38.3,130.9,63.5,137.3
		c8,2,16.3-1.4,25.2-10.4c44.1-44.6,122.1-47.9,168.7-49.9c3.9-0.2,7.5-0.3,10.9-0.5c20.3-1,49.1,2.3,76.9,5.6
		c47.7,5.6,97,11.3,109.8-3.7c3.3-3.9,4.1-9.1,2.4-15.4c-13.8-49.4-23.8-97.7-30.2-146c7.3,51.2,19.2,101.3,36,151.5
		c2,5.9,1.5,10.4-1.3,13.8c-11.5,13.9-60.6,7.5-108.1,1.3c-29.7-3.9-60.3-7.9-81.6-6.8c-3.2,0.2-6.6,0.3-10.3,0.5
		C543.2,778.7,458.6,782.3,412.9,831.5z M791.4,314.2c6.3-0.8,10.6,0.4,13.3,3.7c10.3,13.2-6.8,56.8-24.9,102.9
		c-9.6,24.4-19.3,49.3-25.8,71.4c5.9-20.6,14.5-43.6,22.9-66.2c17.1-45.7,33.3-88.8,22.3-103.1c-3-3.9-7.9-5.5-14.6-4.9
		C671.1,329.6,539,294.6,447.8,229c-38.8-28-54.7-36-62.7-31.7c-5.7,3-6.7,12.1-6.6,26.7c-1.3-19.1-1.9-31.7,3.4-34.7
		c7.3-3.9,27.9,9.7,61,34.5C537,294.4,673.8,329.9,791.4,314.2z M414.1,825.2c-8.4,8.5-16.1,11.8-23.5,9.9
		c-24.3-6.1-41.9-66.4-62.3-136.1c-6.7-23-13.6-46.6-21.2-69.8c7.1,21.2,13.6,42.9,20,64c20.9,69.4,39,129.4,64.6,136.2
		c8,2.1,16.1-0.9,24.8-9.1c43-40.6,118-43.7,162.8-45.6c4.1-0.2,7.9-0.3,11.5-0.5c19.4-1,45.2,1.7,72.6,4.4
		c47.4,4.8,96.4,9.8,110-5.5c3.5-3.9,4.6-9.1,3.2-15.3c-8.9-40.1-19.2-90.9-25.8-151.6c6.3,52,16.7,103.9,31.6,157
		c1.6,5.8,1,10.3-2,13.8c-12.2,14.3-61.1,8.6-108.3,3.1c-27.9-3.3-56.8-6.6-77.2-5.6c-3.4,0.2-7,0.3-10.9,0.5
		C537.1,776.8,458.7,780.1,414.1,825.2z M784.7,319.9c6.1-0.6,10.4,0.7,13,4.2c2,2.6,3,6.2,3.2,10.8c1,19.2-12.1,54.1-25.8,90.6
		c-8.7,23.2-17.5,46.8-23.4,67.9c5.3-19.6,13-41.3,20.6-62.7c15.9-44.7,30.9-87,19.9-101.5c-3-4-7.8-5.8-14.3-5.3
		c-109.6,7.2-237.7-27.5-326.3-88.3c-37-25.4-53.9-33.2-62.5-28.8c-7,3.6-8.1,15.1-8.5,32.4c0-0.7,0-1.4-0.1-2.1
		c-0.6-21-0.9-34.9,5.4-38.3c7.1-3.8,23.6,4.8,60.8,31.6C538.3,296.2,670.9,331.4,784.7,319.9z M415.2,818.9
		c-8.3,7.8-15.9,10.7-23.2,8.7c-24.6-6.6-42.6-66.1-63.4-135c-6.8-22.7-13.9-46.1-21.6-68.9c7.2,20.9,13.9,42.3,20.3,63
		c21.3,68.6,39.7,127.8,65.7,135.1c7.8,2.2,16-0.4,24.5-7.9c41.8-36.5,113.8-39.5,156.8-41.3c4.4-0.2,8.4-0.3,12.2-0.5
		c18.5-0.9,42.6,1.2,68.1,3.4c47.1,4.1,95.8,8.3,110.3-7.3c3.7-4,5.1-9.1,4-15.3c-6-36.8-14.3-87.3-20.1-146.9
		c6.6,61,16.9,112,25.9,152.1c1.3,5.7,0.4,10.3-2.8,13.8c-13,14.7-61.6,9.7-108.5,4.9c-27.4-2.8-53.3-5.4-72.8-4.5
		c-3.6,0.2-7.4,0.3-11.5,0.5C534.1,774.7,458.7,777.9,415.2,818.9z M778,325.6c6-0.4,10.2,1.1,12.8,4.6c2.1,2.8,3.2,6.7,3.4,11.6
		c1,19.2-11,53-23.6,88.3c-8.2,23.1-16.5,46.6-21.8,67.4c4.7-19.3,11.9-41,19-62.2c14.6-43.7,28.5-85.1,17.4-99.9
		c-3-4-7.7-6-14.1-5.8c-106,2.9-230-31.4-315.8-87.5c-35.6-23.3-53.1-30.5-62.3-25.8c-8.4,4.2-9.8,17.9-11,38.5c0-2,0.1-4,0.1-6
		c0.3-22.1,0.5-36.8,7.7-40.5c7.8-4,24.8,4,60.7,28.6C539.5,298,668,332.8,778,325.6z M416.4,812.6c-8.1,7.1-15.6,9.6-22.9,7.5
		c-25.1-7.1-43.3-65.9-64.5-133.9c-6.2-19.9-12.6-40.3-19.4-60.3c6.3,18,12.2,36.5,18,54.4c21.7,67.7,40.5,126.1,66.9,134.1
		c7.7,2.3,15.9,0.1,24.2-6.6c40.5-32.5,106.8-35.2,150.7-36.9c4.7-0.2,9.1-0.4,13.1-0.6c17.5-0.9,39.8,0.7,63.4,2.4
		c46.8,3.3,95.2,6.7,110.7-9.2c3.9-4,5.6-9.2,5-15.4c-1.2-12.1-2.7-25-4.1-38.7c-3.5-31.9-7.6-69.1-10.9-110.3
		c5.8,62.8,14.5,115.9,20.8,154.1c0.9,5.7-0.2,10.2-3.6,13.9c-13.9,15-62.2,10.8-108.9,6.8c-25.5-2.2-49.7-4.3-68.3-3.4
		c-3.8,0.2-7.9,0.4-12.2,0.5C531.1,772.7,458.7,775.7,416.4,812.6z M417.6,806.3c-8,6.4-15.4,8.5-22.6,6.3
		c-25.5-7.7-45-68.5-65.7-132.9c-5.5-17.1-11.1-34.6-17.1-51.8c5.3,15.2,10.5,30.7,15.5,45.8c21.2,64,41.3,124.4,68.1,133.1
		c7.7,2.5,15.8,0.7,24-5.3c39.1-28.5,102.4-31,144.3-32.6c5.1-0.2,9.8-0.4,14.2-0.6c16.5-0.8,36.9,0.3,58.4,1.5
		c46.2,2.5,93.9,5.2,110.9-11c4.3-4.1,6.5-9.3,6.4-15.5c-0.3-30.2-3-65-6.1-105.2c-0.5-5.8-0.9-11.9-1.4-18
		c2.9,33,6.2,63.1,9.1,89.6c1.5,13.7,2.9,26.5,4.1,38.7c0.6,5.7-0.9,10.3-4.5,14c-14.9,15.4-62.9,12-109.3,8.7
		c-23.7-1.7-46-3.3-63.6-2.4c-4,0.2-8.4,0.4-13.1,0.6C525.2,770.8,458.5,773.5,417.6,806.3z M418.8,800c-7.9,5.7-15.2,7.4-22.5,5.1
		c-26-8.4-45.9-68.4-67-132c-4.7-14.3-9.6-28.9-14.6-43.4c4.4,12.4,8.8,25,13,37.3c21.6,63.1,42,122.7,69.4,132.2
		c7.7,2.6,15.7,1.3,23.9-4.1c37.6-24.5,95.4-26.7,137.7-28.3c5.6-0.2,10.8-0.4,15.6-0.7c15.3-0.8,33.9-0.1,53.5,0.7
		c46.3,1.8,94.1,3.6,111.8-13c4.5-4.2,6.8-9.4,7-15.6c1.2-42.8-1.5-96.5-4.7-158.6c1.4,20.6,2.9,40.2,4.3,58.4
		c3.1,40.2,5.8,75,6.1,105.1c0,5.8-1.9,10.4-5.9,14.2c-16.4,15.7-63.8,13.1-109.6,10.6c-21.6-1.2-42-2.3-58.6-1.5
		c-4.4,0.2-9.1,0.4-14.2,0.6C522,768.7,458.3,771.2,418.8,800z M420,793.7c-7.8,5.1-15.1,6.4-22.4,3.9
		c-26.6-9.2-46.9-68.4-68.3-131.1c-3.9-11.4-7.9-23-12-34.5c3.4,9.5,6.8,19,10.1,28.3c22,62.2,42.8,120.9,70.8,131.3
		c7.7,2.9,15.7,1.9,23.8-2.7c35.9-20.5,90.6-22.5,130.6-23.9c6.2-0.2,12.1-0.4,17.5-0.7c14-0.7,30.5-0.4,47.9,0
		c55.2,1.2,117.7,2.5,121-30.9c3.9-39.1,3.7-87.5,1.5-146.1c3,58.8,5.5,109.9,4.3,150.8c-0.2,5.8-2.3,10.5-6.5,14.4
		c-17.2,16.1-66.8,14.2-110.6,12.6c-19.6-0.7-38.2-1.4-53.6-0.7c-4.8,0.2-10,0.4-15.6,0.7C516.1,766.8,458,769,420,793.7z
		 M421.2,787.4c-7.8,4.4-15.1,5.3-22.4,2.6c-27.2-10.1-47.8-68.5-69.7-130.3c-3.1-8.8-6.3-17.8-9.5-26.7c2.5,6.8,5,13.7,7.5,20.4
		c22.4,61.2,43.6,119.1,72.2,130.6c7.7,3.1,15.8,2.7,23.9-1.3c34-16.6,85.3-18.3,122.8-19.6c7.1-0.2,13.9-0.5,20-0.8
		c12.5-0.6,26.8-0.6,41.9-0.5c55.3,0.2,117.9,0.4,123.7-33.2c6.3-36.5,8.6-83.2,7.1-144.6c2.3,60,2.6,109.4-1.3,149.2
		c-3.1,31.7-64.8,30.4-119.2,29.3c-17.5-0.4-34-0.7-48.1,0c-5.4,0.3-11.2,0.5-17.5,0.7C512.5,764.7,457.5,766.7,421.2,787.4z
		 M422.4,781.1c-7.8,3.8-15.2,4.2-22.5,1.3c-27.9-11.2-48.9-68.7-71.2-129.6c-2.2-6-4.5-12.2-6.7-18.4c1.5,3.9,3,7.8,4.4,11.7
		c22.8,60.3,44.3,117.2,73.6,130.1c7.8,3.4,16,3.5,24.2,0.2c31.7-12.7,77.4-14.1,114-15.2c8.4-0.3,16.4-0.5,23.6-0.9
		c10.7-0.5,22.5-0.7,35-0.9c55.6-0.7,118.7-1.6,127.2-35.7c9.2-37,13.4-85.4,12.7-144.2c1.7,63.5-0.6,111.4-7,148.7
		c-5.5,32.2-67.4,32-121.9,31.8c-15.1-0.1-29.4-0.1-42,0.5c-6.1,0.3-12.9,0.5-20,0.8C508.3,762.6,456.7,764.4,422.4,781.1z
		 M423.6,774.8c-7.9,3.2-15.4,3.1-22.9-0.2c-28.6-12.6-51-71.8-72.7-129.1c-1.2-3.2-2.4-6.4-3.6-9.5c0.3,0.8,0.6,1.6,1,2.4
		c27.9,71.4,56.7,145.2,100,131.7c29-9,68.6-10,103.6-10.8c10.3-0.3,20-0.5,28.8-0.9c8.4-0.4,17.4-0.7,26.8-1
		c53.7-1.6,120.5-3.5,131.9-38.5C728.7,681.8,735,633,735,576.3c0.9,60.1-3.3,109.5-12.7,147.1c-8.1,32.9-70.5,33.7-125.5,34.4
		c-12.5,0.2-24.3,0.3-35,0.9c-7.2,0.4-15.2,0.6-23.6,0.9C501.5,760.6,455.7,762,423.6,774.8z M424.9,768.5
		c-41.7,12.9-70.3-60.1-97.8-130.7c-0.3-0.9-0.7-1.8-1-2.7c27.8,68.7,56.8,138.2,100.5,128.8c25.6-5.5,60.1-6.1,90.5-6.5
		c13.1-0.2,25.6-0.4,36.7-1c5.3-0.3,10.9-0.5,16.6-0.7c55.2-2.3,123.8-5.2,138.7-41.6c15.1-36.9,23.4-84.4,24.2-138.9
		c0,57.1-6.2,106-18.4,143.2c-11.1,33.9-77.2,35.8-130.3,37.3c-9.5,0.3-18.5,0.5-26.9,1c-8.8,0.4-18.5,0.7-28.8,0.9
		C493.9,758.5,454.1,759.4,424.9,768.5z M426.1,762.2c-41.3,8.9-69.6-56.6-96.6-123.1c24.4,58.1,54.7,123.6,98.1,118.6
		c20.9-2.5,47.3-2.4,72.9-2.4c17.6,0,34.2,0,49.1-0.7l2.7-0.1c54.9-2.7,130.1-6.5,149.3-45.1c18.4-37.1,28.6-84.1,30.1-137.7
		c-0.6,55.8-8.8,104.3-24.2,141.8c-14.5,35.3-82.5,38.2-137.2,40.5c-5.7,0.2-11.3,0.5-16.7,0.7c-11.1,0.6-23.5,0.7-36.6,1
		C486.4,756.1,451.8,756.7,426.1,762.2z M427.4,755.9c-42.1,4.9-72-59.8-96.2-117.3c24.9,56.7,55,113.3,97.5,112.8
		c13.9-0.2,29.9,0.3,46.8,0.8c23.9,0.7,48.6,1.4,70,0.4c61.3-3.1,126.8-11.2,148.5-48.1c21.5-36.6,33.9-84.2,35.9-136.9
		c-1,55-11.2,103.2-30,140.9c-18.7,37.7-93.3,41.4-147.8,44.1l-2.7,0.1c-14.8,0.7-31.4,0.7-49,0.7
		C474.9,753.5,448.4,753.5,427.4,755.9z M528.9,742.9c-112.3,5.6-208.2-81.2-213.8-193.5c-5.6-112.3,81.2-208.2,193.5-213.8
		c112.3-5.6,208.2,81.2,213.8,193.5C727.9,641.4,641.1,737.3,528.9,742.9z M508.5,334c-62.1,3.1-116.4,33.6-151.9,79.1
		c40.1-57.8,88.7-85.2,148.1-83.9c67.8,1.5,134.8,30,179.2,76.2c21.4,22.3,34.1,57.3,38.6,106.6C708.5,407.1,615.9,328.6,508.5,334z
		 M313.3,549.6c1.1,22.8,6,44.6,13.9,64.8c-8.8-20.2-16.9-44.3-18.2-69.7c0-0.1,0-0.2,0-0.3c-0.9-18.6,0.9-46.4,21.1-87.1
		C317.9,485.5,311.7,516.9,313.3,549.6z M529,744.7c103.9-5.2,186.2-87.1,194.6-188c-3,50-21.6,96.1-53.5,132
		c-29.3,32.9-79.2,53.4-137.1,56.2c-32.7,1.6-68.4-3.3-100.6-14c-35.7-11.8-68.5-44.1-93.1-91.2C376.3,705.6,448.4,748.7,529,744.7z
		 M685.1,404.1c-44.7-46.6-112.1-75.2-180.4-76.7c-57.7-1.3-105.2,24.3-144.8,78c36.8-55.9,74.5-88.7,140.9-82.9
		c71.3,6.3,142.2,35.2,189.8,77.1c26.7,23.5,31.3,69,33.6,111.9C719.6,462,706.8,426.7,685.1,404.1z M307.4,544.5c0,0.1,0,0.2,0,0.3
		c1.1,22.5,7.6,44,15.1,62.7c-9.8-22.2-18.2-44.9-19.4-67.7c0-0.1,0-0.3,0-0.4c-1.5-32.6,12.8-62.9,29.4-90.6
		C318,475.9,305.6,509.1,307.4,544.5z M431.8,732.5c32.4,10.7,68.3,15.8,101.2,14.1c58.3-2.9,108.7-23.6,138.3-56.8
		c31.2-35,49.7-79.7,53.6-128.3c-3,50.2-19.4,96.3-47.4,132c-14.1,18-51.1,48.8-140.4,53.3c-30.7,1.5-69.3-2-106-9.7
		c-33.8-7.1-65-39.3-92.9-95.8C363,688.4,396,720.6,431.8,732.5z M691.7,398.3c-47.9-42.2-119.2-71.2-190.8-77.5
		c-33.8-3-62.4,4.2-87.4,21.9c-17.3,12.3-33.5,29.9-51.2,55.9c36.2-59,66.5-93,134.5-82.6c75.2,11.4,150.1,40.6,200.4,78
		c20.8,15.5,25.9,47.7,27.6,81.1c0.5,9.6,0.7,19.2,0.8,28.6c0,2.4,0.1,4.7,0.1,7C723.5,467.6,718.7,422.1,691.7,398.3z M301.4,539.5
		c0,0.2,0,0.3,0,0.5c1.1,21.4,8.4,42.5,17.3,63.3c-10.9-23.4-20.4-45.7-21.6-68.3c0-0.2,0-0.4,0-0.6c-1.5-33.7,17.9-63.7,37.6-92.6
		C316.5,471.3,299.7,504,301.4,539.5z M430.8,738.8c36.8,7.7,75.6,11.3,106.4,9.8c90-4.5,127.4-35.7,141.7-53.9
		c27.8-35.4,44.2-80.8,47.7-130.4c-2.5,51.4-16.9,98.2-41.6,134.3c-20.3,29.6-68.6,46.5-143.8,50.3c-35.7,1.8-79.4-2.4-111.4-5.4
		c-41.7-4-72-55.1-94.3-103.4C364,698.3,396,731.5,430.8,738.8z M727.5,503.6c-0.8-42.5-1.8-90.6-29.2-111.1
		c-50.5-37.6-125.7-66.9-201.2-78.3c-66.6-10.1-97.5,21.5-132.4,77.1c34.4-60.9,57.3-96.9,128.2-82c80.3,16.9,159.2,46.4,211,78.9
		c17.2,10.8,22.6,34.1,23.9,61.1c0.7,13.6,0.3,28.1,0,42.5c-0.1,6.3-0.3,12.5-0.3,18.4C727.6,508.1,727.6,505.9,727.5,503.6z
		 M335.5,437.5c-20.5,30.2-41.8,61.4-40.1,97c0,0.2,0,0.4,0,0.6c1,20.3,8.6,40.1,17.9,60.7c-11.2-23-21.3-44.8-22.2-66.4
		c-1.4-31.3,19.6-59.1,39.9-86.1c2-2.7,4-5.3,5.9-7.9C336.5,436.1,336,436.8,335.5,437.5z M429.8,745.1c31.9,3,75.7,7.2,111.5,5.4
		c75.7-3.8,124.6-20.9,145.1-51c24.5-35.8,38.9-82.1,41.8-132.8c-1.9,52.6-14.3,100.3-35.7,136.8c-21.3,36.3-86.3,44.2-147.1,47.3
		c-21.3,1.1-46,0.3-69.8-0.4c-16.9-0.5-32.9-1-46.9-0.8c-40.5,0.6-69.9-53.2-94.3-108.2C356.7,689.9,387.3,741.1,429.8,745.1z
		 M729.7,491.9c1-43.4,2-88.2-24.8-105c-52-32.6-131.1-62.2-211.6-79.2c-68.9-14.5-94.2,20-125.7,75.1c0.8-1.5,1.6-3.1,2.4-4.6
		c30.3-58.7,48.6-94.1,119.1-75.4c64.3,17.1,155,44.8,221.6,79.8c15.2,8,20.5,26.8,21.6,49.6c0.8,15.8-0.4,33.5-1.5,51.1
		c-0.6,8.7-1.1,17.1-1.4,25.2C729.5,503.1,729.6,497.6,729.7,491.9z M329.6,442.2c-20.5,27.2-41.7,55.2-40.2,87.2c0,0.2,0,0.4,0,0.6
		c1,19.8,9.5,39.6,19.4,60.3c-11.8-23-22.8-44.8-23.6-66c-1.3-29,20.4-54.7,41.4-79.6c4.4-5.2,8.7-10.3,12.8-15.4
		C336.2,433.6,332.9,437.9,329.6,442.2z M732.6,483.4c2.8-43.4,5.8-88.3-21-102.3c-66.8-35.1-157.6-62.8-222-80
		c-70.4-18.7-89.6,15.4-119.3,72.7c1.9-4.1,3.7-8,5.5-11.8c26.2-56.6,40.6-87.7,109.5-65.8c7.2,2.3,14.6,4.6,22.1,7
		c70.3,22.3,150.1,47.6,210.1,73.7c13.9,6.1,19,21.8,20,41.9c0.9,17.2-1.3,37.5-3.4,57.5c-1.2,11-2.3,22.2-3,32.9
		C731.4,501,732,492.3,732.6,483.4z M325.2,443.6c-21.2,25.1-43,51.1-41.8,80.8c0,0.2,0,0.5,0,0.7c0.9,19,9.7,38.2,19.9,58.4
		c-12.1-22.5-23.4-43.7-24.2-64.2c-1.1-27.3,21.5-51.5,43.5-74.8c6.6-7,13-13.9,18.7-20.7C336.4,430.3,330.9,436.9,325.2,443.6z
		 M735.9,476.5c4.6-44,9.4-89.4-17.7-101.2c-60.2-26.2-139.9-51.5-210.3-73.8c-7.5-2.4-14.8-4.7-22.1-7
		c-70.4-22.4-85,9.3-111.6,66.7c-0.4,0.9-0.9,1.9-1.3,2.8c2.4-5.7,4.7-11.3,6.8-16.6c22.4-55.2,33.7-82.9,101.7-57.9
		c42.7,15.7,90.8,31.3,137.3,46.4c37.9,12.3,73.7,23.9,105.5,35.2c13,4.6,18,18.2,18.9,36.2c0.9,18.1-2.3,40.6-5.5,62.7
		c-1.8,12.3-3.5,24.9-4.6,36.7C733.7,497,734.8,486.7,735.9,476.5z M321.4,443.3c-22.2,23.6-45.1,48-44,76.1c0,0.2,0,0.5,0,0.7
		c0.9,18.6,10.2,37.7,20.9,57.8c-12.6-22.4-24.5-43.6-25.2-63.6c-1-26.1,22.8-48.9,45.9-71.1c8.7-8.3,17.1-16.4,24.2-24.5
		C336.9,426.8,329.2,434.9,321.4,443.3z M739.4,470.4c6.4-44.8,13-91.1-14.6-100.8c-31.8-11.3-67.6-22.9-105.5-35.2
		c-46.5-15.1-94.6-30.7-137.3-46.4c-69.6-25.6-81.8,4.4-103.9,58.9c-0.9,2.2-1.8,4.4-2.7,6.6c2.5-6.8,4.8-13.3,6.9-19.5
		c10.6-30.1,18.2-51.9,35.1-59.5c13.2-5.9,31.7-3.3,60.1,8.5c75.5,31.3,170.4,59,253.4,82.5c12.4,3.5,17.2,15.5,18,31.9
		c0.9,18.7-3.4,43.1-7.6,67.1c-2.5,14.2-5,28.6-6.6,42C735.9,495,737.6,482.6,739.4,470.4z M317.9,441.9
		c-23.4,22.4-47.6,45.5-46.5,72.4c0,0.3,0,0.5,0,0.8c0.9,17.1,9.5,34.9,19.7,53.5c-12.7-21.7-23.3-40.8-24-59.4
		c-0.9-25,24.3-46.8,48.6-67.9c10.7-9.3,21.1-18.3,29.3-27.4C337.5,423.1,327.9,432.3,317.9,441.9z M743.1,464.9
		c8.1-45.7,16.4-93-11.7-101c-83-23.5-177.8-51.2-253.2-82.4c-28.9-12-47.8-14.6-61.5-8.5c-17.6,7.9-25.3,29.9-36,60.5
		c-1,2.7-1.9,5.5-2.9,8.4c2.3-7.3,4.4-14.3,6.3-20.7c8.4-28.5,14.5-49.2,29.6-56c12.3-5.6,30.9-2.1,60.1,11.3
		c96.2,44.2,216.7,73.1,264,83.4c12,2.6,16.8,13.1,17.6,28.1c0.9,18.7-4.4,44.6-10,71.3c-3.3,15.7-6.6,31.7-8.6,46.4
		C738.2,492.6,740.7,478.6,743.1,464.9z M314.7,439.9c-24.7,21.4-50.2,43.5-49.2,69.3c0,0.2,0,0.5,0,0.7c0.8,16.5,9.5,33.9,19.9,52
		c-12.9-21.2-23.5-39.8-24.2-57.8c-0.8-24.2,25.7-45.1,51.4-65.3c12.9-10.1,25.2-19.9,34.4-29.9
		C338.5,419.3,326.8,429.4,314.7,439.9z M747,459.6c10.2-48.9,19.8-95.1-8.9-101.4c-47.3-10.3-167.5-39.1-263.6-83.3
		c-29.7-13.7-48.7-17.2-61.6-11.3c-15.7,7.1-21.9,28.1-30.5,57.1c-0.8,2.8-1.7,5.7-2.6,8.6c1.9-7.3,3.6-14.2,5.2-20.6
		c6.9-28.2,11.4-46.8,24.7-52.9c11.5-5.3,30-0.9,60.2,14.2c86.9,43.6,198.8,72.1,274.6,84.3c5.4,0.9,9.5,3.3,12.3,7.6
		c2.9,4.4,4.3,10.4,4.7,17.7c1,19.4-5.7,47.4-12.2,74.7c-4.1,17.1-8.2,34.5-10.6,50.3C740.6,490.2,743.8,474.7,747,459.6z
		 M311.5,437.5c-26,20.5-52.9,41.7-52.1,66.7c0,0.3,0,0.5,0,0.8c0.8,15.8,8.9,31.8,19.3,49.5c-12.5-20-22.7-37.6-23.6-54.6
		c0-0.3,0-0.5,0-0.8c-0.8-23.4,27.2-43.5,54.2-62.9c14.7-10.6,28.9-20.8,38.8-31.4C339.1,415.8,325.6,426.5,311.5,437.5z
		 M750.9,454.5c9.4-39.7,18.3-77.2,7.2-93.8c-3.1-4.6-7.6-7.4-13.5-8.3c-75.6-12.1-187.3-40.6-274.1-84.1
		c-31.1-15.6-49.5-19.8-61.7-14.2c-14.1,6.5-19,26.5-25.7,54.1c-0.6,2.4-1.2,4.8-1.8,7.3c1.4-6.7,2.6-13.1,3.8-19.1
		c5.2-26.8,8.6-44.6,20.5-50.2c10.8-5.1,28.8,0,60.2,17c77.4,42,186.7,74.6,285.1,85.2c5.5,0.6,9.5,2.8,12.3,6.9
		c2.7,4,4.1,9.5,4.4,16.1c1,19.1-6.6,47.8-14.5,77.7c-4.9,18.4-9.8,37.1-12.8,54C743.1,487.8,747,471,750.9,454.5z M308.4,434.8
		c-27.4,19.7-55.8,40.1-55,64.4c0,0.3,0,0.5,0,0.8c0.8,15.1,8.6,30.5,19,47.6c-12.6-19.6-22.7-36.9-23.2-53.4
		c-0.7-22.7,28.7-42.1,57.1-60.8c16.3-10.7,32.9-21.7,43.8-33.3C340.1,412.1,324.1,423.6,308.4,434.8z M755,449.6
		c10.8-40.7,20.9-79.2,9.8-95.3c-3-4.4-7.6-7-13.6-7.6c-98.3-10.5-207.3-43.1-284.5-85c-32-17.3-50.5-22.4-61.8-17.1
		c-12.7,6-16.1,24.1-21.4,51.4c-0.3,1.7-0.7,3.5-1,5.3c1-6.1,1.8-11.8,2.6-17c3.7-25.6,6.2-42.5,16.7-47.6c10-4.8,28,1.1,60.3,19.9
		c79.9,46.4,196,80.2,295.7,86c5.6,0.3,9.7,2.4,12.4,6.2c2.6,3.6,3.8,8.6,4.1,14.7c1,19.2-7.7,49.2-16.8,80.6
		c-5.7,19.6-11.5,39.6-15,57.6C745.6,485.5,750.3,467.4,755,449.6z M305.4,431.9c-28.8,19-58.7,38.6-57.9,62.3c0,0.3,0,0.5,0,0.8
		c0.7,14.3,8.2,29.1,18.2,45.2c-12.4-18.7-22-35.4-22.5-51.1c-0.7-22.1,30.2-40.7,60-58.8c17.9-10.8,36.3-21.9,47.8-33.8
		C340.5,408.8,322.7,420.5,305.4,431.9z M759.2,444.8c12.1-41.7,23.5-81.2,12.4-96.8c-3-4.3-7.6-6.6-13.7-7
		c-99.5-5.8-215.2-39.5-294.9-85.8c-33.3-19.4-51.3-25.1-62-20c-11.4,5.5-13.9,22.8-17.7,48.9c-0.1,0.7-0.2,1.4-0.3,2.1
		c0.5-4.8,1-9.4,1.4-13.7c2.4-24.4,4-40.6,13.3-45.2c9.3-4.6,26.8,2,60.4,22.8c83.1,51.4,203.4,85.5,306.3,86.9
		c5.7,0.1,9.8,1.9,12.5,5.7c2.4,3.3,3.6,7.9,3.9,13.5c1,19.2-8.8,50.6-19.1,83.3c-6.5,20.8-13.1,42-17.2,61
		C748.2,483,753.8,463.7,759.2,444.8z M302.4,428.8c-30.3,18.3-61.6,37.2-60.9,60.3c0,0.3,0,0.6,0,0.8c0.7,14,8.2,28.4,18.2,44.3
		c-12.5-18.4-22.1-34.8-22.5-50.2c-0.7-21.5,31.7-39.5,63-56.9c19.9-11.1,40.4-22.5,52.4-34.9C341.7,405,321.8,417.1,302.4,428.8z
		 M763.5,440c13.4-42.7,26-83.1,15-98.4c-3-4.1-7.7-6.3-13.9-6.4c-102.6-1.4-222.5-35.4-305.4-86.6c-34.7-21.4-52.1-27.8-62.1-22.9
		c-9.9,4.9-11.7,20.8-14.1,44.8c0.2-3.4,0.4-6.7,0.6-9.9c1.3-23.3,2.1-38.7,10.4-42.8c8.6-4.3,25.6,2.9,60.6,25.7
		c86.1,56.2,210.4,90.7,316.8,87.8c5.8-0.2,10,1.5,12.7,5.1c2.2,3,3.4,7.3,3.6,12.5c1,19.2-9.9,51.8-21.3,85.8
		c-7.3,22-14.8,44.4-19.5,64.2C750.8,480.6,757.2,460.1,763.5,440z M299.3,425.5c-31.7,17.7-64.5,35.9-63.8,58.5c0,0.3,0,0.6,0,0.9
		c0.7,13.1,7.5,26.7,17.1,41.6c-11.7-17-20.6-32.3-21.3-46.7c0-0.3,0-0.6,0-0.9c-0.6-21,33.2-38.4,65.9-55.2
		c21.8-11.2,44.2-22.7,56.7-35.5C342.5,401.5,320.6,413.7,299.3,425.5z M296.3,422.2c-33.2,17.1-67.4,34.7-66.8,56.8
		c0,0.3,0,0.6,0,1c0.6,12.7,7.4,26,16.8,40.4c-11.9-16.9-20.8-32.2-21.1-46.5c-0.6-20.5,34.7-37.3,68.8-53.5
		c23.7-11.3,48.1-22.9,61-36.1C343.5,398,319.6,410.3,296.3,422.2z M293.3,418.8c-36.2,17.2-70.3,33.5-69.8,55.2c0,0.3,0,0.7,0,1
		c0.6,12.1,7,24.8,16,38.6c-11.5-16.3-20-31-20.3-44.7c-0.5-20,36.2-36.2,71.6-51.9c25.5-11.3,51.8-22.9,65.1-36.3
		C344.2,394.6,318.4,406.9,293.3,418.8z M290.2,415.4C252.6,432,217,447.8,217.5,469c0,0.3,0,0.7,0,1c0.6,11.8,6.8,24.2,15.7,37.6
		c-11.5-15.9-19.8-30.3-20-43.7c-0.5-19.6,37.7-35.2,74.5-50.4c27.5-11.3,55.8-23,69.4-36.7C345.2,391,317.3,403.4,290.2,415.4z
		 M781.3,421.5c18.3-46.6,35.6-90.7,24.7-104.6c-3-3.8-8-5.3-14.9-4.4c-117.2,15.7-253.4-19.7-347.2-90
		c-40.3-30.2-55.5-38.6-62.9-34.7c-4.6,2.5-5.5,9.8-5.2,21.5c-1.7-16.3-2.4-27.1,2-29.5c6.5-3.6,25.7,9.8,61.1,37.5
		c46.4,36.2,104.3,64,167.7,80.5c64.9,16.9,131.1,20.6,191.3,10.7c6.5-1.1,10.9,0,13.5,3.3c10.3,12.9-8,57.4-27.2,104.4
		c-10.4,25.4-21,51.2-28.1,74.1C762.7,468.9,772.1,445,781.3,421.5z M287.1,411.9c-39.1,16.1-76.1,31.3-75.6,52.1c0,0.3,0,0.7,0,1
		c0.6,11.5,6.7,23.6,15.5,36.7c-11.4-15.6-19.5-29.7-19.7-42.8c-0.4-19.1,39.1-34.3,77.3-48.9c29.5-11.3,59.7-22.9,73.7-36.9
		C346.2,387.6,316.3,399.9,287.1,411.9z M680.3,784.8c50.2,6.6,97.6,12.8,109.7-1.9c3.2-3.9,3.7-9.1,1.6-15.5
		c-16.3-48.7-28-97.4-35.4-147.1c8.2,52.3,21.9,102.7,41.2,152.5c2.3,6,2.1,10.5-0.6,13.9c-10.8,13.6-60.2,6.4-107.9-0.4
		c-14.6-2.1-29.4-4.2-43.3-5.8C656.9,781.8,668.7,783.3,680.3,784.8z M786,416.9c20.3-49.6,37.9-92.5,27-106.2
		c-3-3.8-8.1-5.1-15.2-4c-60,9.9-125.9,6.2-190.6-10.7c-63.1-16.4-120.9-44.2-167-80.2c-42.2-32.9-56.3-41.4-63.1-37.6
		c-3.7,2.1-4.5,7.8-4.1,17c-1.9-13.9-2.6-23,0.9-25c5.7-3.2,24.3,10.5,61.3,40.5C482.5,248.9,542,278,607,294.8
		c67,17.2,135.4,20,197.7,8c6.6-1.3,11.1-0.3,13.8,2.9c10.2,12.6-9.1,58-29.5,106c-11.2,26.2-22.5,53-30.3,76.6
		C765.8,466.1,776,441.3,786,416.9z M284,408.3c-40.6,15.5-78.9,30.2-78.5,50.6c0,0.3,0,0.7,0,1c0.6,11.1,6.4,22.9,15,35.5
		c-11.2-15.2-19.1-29-19.3-41.7c-0.4-18.7,40.6-33.3,80.2-47.5c31.3-11.2,63.5-22.7,77.8-36.8C346.9,384.2,315,396.4,284,408.3z
		 M688.6,788.1c50.5,7.3,98.1,14.2,109.6-0.2c3.1-3.9,3.4-9.1,0.8-15.6c-19.5-50.3-33.2-101.2-41.4-154
		c9.2,55.7,25,109.1,47.3,159.6c2.7,6.1,2.7,10.6,0.1,14c-10.2,13.2-59.8,5.4-107.8-2.2c-11.8-1.9-23.7-3.7-35.2-5.3
		C670.8,785.5,679.7,786.8,688.6,788.1z M756.9,613.7c0,0,0,0.1,0,0.1C756.9,613.8,756.9,613.7,756.9,613.7z M369.9,160.6
		c5.3-3.1,26.8,14.4,61.5,43.4c48.3,40.4,109.1,70.7,175.9,87.7c69.1,17.6,139.7,19.4,204.1,5.3c6.8-1.5,11.4-0.7,14,2.5
		c10.1,12.4-10.2,58.6-31.8,107.5c-11.7,26.5-23.5,53.4-31.9,77.4c7.7-22.5,18.3-47.6,28.8-72.2c21.5-50.6,40.1-94.3,29.3-107.8
		c-3-3.7-8.2-4.9-15.5-3.5c-62.1,12-130.2,9.2-197-8c-64.8-16.7-124-45.7-171.1-83.8c-41-33.2-56.7-44.3-63.3-40.6
		c-2.9,1.6-3.6,6.1-3.2,13.1C367.9,170.2,367.1,162.2,369.9,160.6z M195.3,448.8c-0.3-18.3,42-32.4,82.9-46
		c33.2-11.1,67.3-22.4,81.9-36.7c-12.5,14.8-46.3,26.9-79.3,38.7c-42,15-81.7,29.2-81.3,49.1c0,0.4,0,0.7,0,1.1
		c0.5,10.7,6.1,22,14.4,34.2C203.1,474.4,195.5,461,195.3,448.8z M384.3,865.1c-23-4.9-39.5-67.9-58.5-141
		c-8.5-32.6-18-69.1-29-103.7c10.5,32.4,19.4,65.6,28,97.9c20.3,75.8,36.3,135.6,60.7,141c8.3,1.8,16.9-2.8,26.4-14.1
		c47.4-56.8,137.5-60.7,186-62.8c3.4-0.1,6.5-0.3,9.4-0.4c6.3-0.3,13.5-0.1,21.3,0.4c-6.2-0.4-12.1-0.5-17.2-0.2
		c-2.8,0.1-5.8,0.3-9,0.4c-50.3,2.2-144,6.3-192.9,67.8C400.2,861.9,392,866.7,384.3,865.1z"/>
	<path class="st2" d="M190.2,815c-1.2-23.5,30-65.3,60.3-105.8c31.9-42.7,64.8-86.9,55.5-104.6c-9.1-17.2-27.8-19.2-45.8-21.2
		c-20.4-2.3-39.7-4.4-40.9-29c-0.5-10.8,15.6-26.7,34.2-45c23.4-23.1,50-49.2,46-69.1c-5.9-30.3-31.7-58.1-54.4-82.7
		c-27.3-29.5-50.8-54.9-32-75.6c17.2-18.8,74.6-0.5,130.1,17.2c49.6,15.8,100.8,32.1,120.5,20.9c23.4-13.4,38.3-33.8,52.7-53.5
		c18-24.7,35-48,65.9-49.6c53.6-2.7,58.7,29.7,64.6,67.2c4.1,26.3,8.8,56.1,30.1,80.6c15.2,17.5,34.6,34,55.2,51.4
		c39.6,33.6,80.5,68.3,97.2,115.3c12.6,35.4,7.1,77-14.6,111c-28.4,44.7-80.6,72.8-146.9,79.2c-32,3.1-47.1,29.3-63,56.9
		c-16.5,28.7-33.6,58.3-71.1,60.2c-11.4,0.6-23.2-12.7-36.9-28.1c-19.2-21.5-43-48.3-75.5-48.7c-43.2-0.5-90.6,22.9-132.5,43.6
		c-46,22.7-82.4,40.7-96.1,18.1C191.2,821.2,190.4,818.2,190.2,815z M309.3,610.7c1.1,21.1-27.4,59.3-57.4,99.4
		c-30.1,40.4-61.1,81.9-60,104.5c0.2,3,0.9,5.7,2.3,8.1c12.8,21.2,48.6,3.5,93.8-18.8c42-20.8,89.7-44.3,133.3-43.7
		c33.2,0.4,57.3,27.5,76.7,49.3c13.4,15,25,28,35.5,27.5c36.6-1.8,53.4-31,69.7-59.3c15.5-26.9,31.5-54.6,64.4-57.8
		c65.8-6.4,117.5-34.2,145.6-78.4C834.6,607.9,840,567,827.6,532c-16.5-46.6-57.3-81.2-96.7-114.6c-20.6-17.5-40.1-34-55.4-51.6
		c-21.6-24.9-26.3-55-30.5-81.5c-6-38.2-10.7-68.3-62.8-65.7c-30.1,1.5-46.1,23.4-64.6,48.9c-14.5,19.9-29.4,40.4-53.2,54
		c-20.3,11.6-69.6-4.1-121.9-20.8c-55-17.5-111.8-35.6-128.3-17.7c-17.8,19.4,5.3,44.4,31.9,73.2c22.9,24.8,48.8,52.8,54.9,83.6
		c4,20.8-22.8,47.3-46.5,70.7c-17.6,17.3-34.2,33.7-33.7,43.7c1.2,23.2,18.9,25.1,39.4,27.4c17.6,1.9,37.6,4.2,47.2,22.2
		C308.6,605.8,309.2,608.1,309.3,610.7z M199.3,807.8c-1.2-23,27.8-63.1,55.9-102c29.8-41.3,60.7-84,51.5-101.6
		c-8.7-16.7-26.4-19-43.6-21.2c-19.5-2.6-38-5-39.2-28.9c-0.5-10.8,14.9-26.4,32.9-44.5c22.1-22.3,47.2-47.6,43.6-66.9
		c-5.4-29.2-29.5-56.1-50.7-79.9c-25.8-28.9-48-53.8-29.6-74.1c17-18.7,72.5-1.9,126.2,14.4c47.6,14.4,96.8,29.4,116.2,18.4
		c22.6-12.8,37.1-32.2,51.2-51c17.8-23.7,34.6-46.2,64.8-47.7c52.9-2.6,58.9,28.9,65.9,65.5c4.8,25.1,10.2,53.5,30.9,77.1
		c14.6,16.6,32.8,32.3,52.1,49c39.4,34.1,80.2,69.3,96.5,116.9h0c12.2,35.9,6.8,76.2-15,110.5c-27.7,43.7-78.3,71.7-142.3,78.8
		c-31.1,3.5-46.2,28.6-62.3,55.2c-16.7,27.7-34.1,56.4-71,58.3c-11.3,0.6-23.1-12.2-36.7-27.1c-18.7-20.3-41.9-45.7-73.1-46.2
		c-41.5-0.7-87,20.9-127.1,40c-45.2,21.4-80.8,38.4-94.6,16.1C200.3,814.3,199.5,811.2,199.3,807.8z M310.1,610.5
		c1,20.8-25.5,57.6-53.5,96.3c-32,44.3-65.1,90.1-53.2,109.2c13,20.9,48,4.3,92.4-16.8c40.3-19.1,86-40.8,127.9-40.1
		c31.9,0.5,55.4,26.2,74.3,46.7c13.3,14.5,24.8,27,35.3,26.5c36-1.8,53.1-30.1,69.6-57.4c15.6-25.8,31.7-52.4,63.6-56
		c63.5-7.1,113.6-34.8,141-78c21.5-33.8,26.9-73.6,14.8-109c-16.1-47.2-56.7-82.3-96-116.2c-19.4-16.7-37.6-32.5-52.3-49.2
		c-21-24-26.5-52.7-31.3-78c-7.1-37.2-12.7-66.7-64.1-64.1c-29.4,1.5-45.2,22.6-63.5,47c-14.2,18.9-28.8,38.5-51.7,51.5
		c-20.1,11.3-67.4-3-117.6-18.3c-53.2-16.1-108.1-32.8-124.4-14.9c-17.4,19.1,4.4,43.5,29.6,71.8c21.4,23.9,45.6,51.1,51.1,80.7
		c3.7,20.2-21.7,45.8-44.1,68.5c-16.9,17.1-32.9,33.2-32.4,43.2c1.1,22.4,18.1,24.7,37.7,27.2c16.8,2.2,35.8,4.7,44.9,22.1
		C309.4,605.4,310,607.8,310.1,610.5z M208.3,800.6c-1.1-22.5,25.6-60.9,51.6-98.2c27.8-39.9,56.5-81.1,47.5-98.7
		c-8.3-16.1-25.1-18.7-41.4-21.2c-18.6-2.9-36.3-5.5-37.4-28.7c-0.5-10.8,14.3-26.2,31.5-44c20.9-21.6,44.5-46.1,41.3-64.8
		c-4.9-28.2-27.3-54.2-47-77.2c-24.3-28.2-45.2-52.6-27.2-72.5c16.8-18.6,70.3-3.2,122.2,11.7c45.7,13.1,92.9,26.7,112,15.9
		c21.8-12.2,36.1-30.7,49.9-48.6c17.6-22.8,34.2-44.3,63.6-45.7c52.2-2.6,59.2,28.2,67.2,63.8c5.4,23.9,11.6,51,31.8,73.7
		c14,15.7,31.1,30.8,49.2,46.7c39.2,34.5,79.8,70.2,95.7,118.4l0,0c11.7,35.9,6.1,76-15.4,109.9c-27,42.7-75.9,70.6-137.7,78.5
		c-30.1,3.9-45.4,27.9-61.5,53.4c-17,26.8-34.6,54.5-70.9,56.4c-11.3,0.6-23-11.8-36.5-26c-18.1-19.2-40.7-43-70.6-43.7
		c-39.8-0.9-83.3,18.9-121.8,36.4c-42.5,19.3-79.2,36-93.1,14.1C209.4,807.4,208.5,804.2,208.3,800.6z M310.9,610.3
		c1,20.5-23.6,55.9-49.5,93c-29.8,42.8-60.7,87.1-48.8,105.9c13.1,20.7,47.4,5,90.9-14.7c38.6-17.5,82.4-37.4,122.5-36.6
		c30.7,0.7,53.5,24.8,71.9,44.2c13.2,14,24.6,26,35.1,25.5c35.5-1.8,52.8-29.1,69.6-55.6c15.7-24.7,31.8-50.3,62.8-54.2
		c61.3-7.8,109.7-35.4,136.5-77.7c21.2-33.5,26.8-73,15.2-108.4c-15.7-47.8-56.1-83.3-95.2-117.7c-18.2-16-35.3-31-49.4-46.8
		c-20.5-23.1-26.7-50.4-32.2-74.5c-8.2-36.3-14.7-64.9-65.4-62.4c-28.6,1.4-44.2,21.6-62.3,45c-13.9,18-28.2,36.6-50.4,49
		c-19.8,11.1-65.2-1.9-113.4-15.8c-51.3-14.7-104.4-30-120.4-12.2c-17,18.8,3.5,42.6,27.2,70.2c19.9,23.2,42.5,49.4,47.4,78
		c3.4,19.6-20.6,44.4-41.7,66.3c-16.2,16.8-31.6,32.6-31.1,42.7c1.1,21.7,17.2,24.2,35.9,27c16,2.4,34.1,5.2,42.7,22.1
		C310.2,605.1,310.8,607.6,310.9,610.3z M217.4,793.3c-1.1-22.1,23.5-58.7,47.3-94.4c25.7-38.4,52.4-78.2,43.6-95.7
		c-7.8-15.6-23.8-18.4-39.3-21.2c-17.7-3.2-34.5-6.1-35.6-28.5c-0.5-10.8,13.7-25.9,30.2-43.4c19.6-20.8,41.9-44.5,38.9-62.6
		c-4.4-27.1-25.1-52.2-43.4-74.4c-22.7-27.6-42.4-51.5-24.8-71c16.5-18.5,68.2-4.6,118.2,8.9c43.7,11.8,88.9,23.9,107.8,13.4
		c21-11.7,35-29.2,48.4-46.1c17.4-21.8,33.8-42.4,62.4-43.8c51.5-2.6,59.5,27.4,68.7,62.1c6,22.7,12.9,48.4,32.5,70.2
		c13.3,14.7,29.2,29,46,44c39.2,35.1,79.7,71.4,95.1,120.3l0,0c11.2,35.8,5.4,75.7-15.8,109.3c-26.3,41.8-73.6,69.5-133.1,78.1
		c-29.1,4.2-44.5,27.3-60.7,51.6c-17.2,25.9-35.1,52.7-70.9,54.5c-11.3,0.6-22.8-11.3-36.3-25c-17.6-18-39.6-40.4-68.2-41.2
		c-38-1-79.7,17-116.4,32.9c-41.7,18-77.6,33.6-91.6,12C218.5,800.5,217.6,797.1,217.4,793.3z M311.7,610.1
		c1,20.2-21.7,54.1-45.6,89.8c-27.7,41.3-56.3,84.1-44.3,102.5c13.2,20.4,48.6,5.1,89.5-12.6c36.9-16,78.7-34.1,117.2-33
		c29.4,0.8,51.6,23.5,69.4,41.7c13.1,13.4,24.5,25,34.9,24.5c35-1.7,52.5-28.2,69.5-53.7c15.7-23.6,32-48.1,61.9-52.4
		c59-8.6,105.9-36,131.9-77.3c20.9-33.2,26.6-72.5,15.6-107.9l0,0c-15.3-48.5-55.6-84.6-94.6-119.5c-16.9-15.1-32.8-29.3-46.2-44.2
		c-20-22.1-26.9-48.1-32.9-71c-9.4-35.4-16.8-63.3-66.9-60.8c-27.9,1.4-43.3,20.7-61.2,43.1c-13.6,17-27.6,34.7-49,46.5
		c-19.5,10.8-63-0.9-109.1-13.3c-49.5-13.3-100.6-27.1-116.5-9.4c-16.6,18.5,2.6,41.8,24.8,68.8c18.4,22.4,39.3,47.7,43.7,75.3
		c3.1,19-19.5,43-39.4,64.1c-15.5,16.5-30.2,32.1-29.7,42.2c1,21,16.4,23.7,34.2,26.9c15.9,2.8,32.3,5.7,40.5,22.1
		C310.9,604.7,311.5,607.3,311.7,610.1z M226.4,786c-1.1-21.6,21.3-56.5,43-90.5c23.7-37,48.2-75.3,39.6-92.7
		c-7.4-15-22.5-18.1-37.1-21.1c-16.9-3.5-32.8-6.7-33.8-28.4c-0.5-10.8,13.1-25.7,28.8-42.9c18.4-20.1,39.2-42.9,36.6-60.5
		c-3.9-26-22.9-50.3-39.7-71.6c-21.2-27-39.5-50.3-22.4-69.6c16.4-18.4,66.1-5.9,114.3,6.1c41.7,10.4,84.9,21.2,103.5,11
		c20.2-11.1,33.8-27.6,47-43.6c17.2-20.8,33.4-40.5,61.3-41.9c50.9-2.5,59.8,26.6,70.2,60.4c6.6,21.5,14.1,45.9,33.2,66.7
		c12.6,13.7,27.2,27,42.6,41.1c39.2,35.7,79.7,72.6,94.7,122.4l0,0c10.6,35.8,4.7,75.4-16.2,108.8c-25.6,40.8-71.3,68.4-128.6,77.8
		c-28.2,4.6-43.5,26.6-59.8,49.8c-17.5,25-35.6,50.9-70.9,52.6c-11.2,0.6-22.7-10.8-36.1-23.9c-18-17.7-38.4-37.8-65.8-38.7
		c-36.3-1.2-76,15.1-111,29.4c-40.8,16.7-76.1,31.2-90.2,9.8C227.6,793.6,226.6,790,226.4,786z M312.5,610
		c1,19.9-19.8,52.3-41.6,86.4c-25.5,39.9-51.9,81.1-39.8,99.2c13.3,20.1,48,5.9,88.1-10.5c35.2-14.4,75.1-30.8,111.8-29.5
		c28.1,0.9,49.7,22.1,67,39.2c13,12.8,24.3,23.9,34.8,23.4c34.4-1.7,52.3-27.2,69.6-51.9c15.8-22.5,32.1-45.9,61-50.6
		c56.8-9.3,102-36.6,127.4-77c20.6-32.9,26.5-72,16-107.3l0,0c-14.9-49.3-55.2-86.1-94.2-121.6c-15.5-14.1-30.1-27.5-42.7-41.2
		c-19.4-21.1-26.9-45.7-33.6-67.4c-10.6-34.5-18.9-61.7-68.5-59.2c-27.1,1.4-42.4,19.8-60.1,41.2c-13.3,16.1-27,32.7-47.5,44
		c-19.3,10.6-60.8,0.2-104.8-10.8c-47.6-11.9-96.9-24.2-112.6-6.6c-16.2,18.2,1.7,41,22.5,67.3c16.9,21.5,36.1,46,40.1,72.5
		c2.7,18.4-18.4,41.6-37,61.9c-14.8,16.2-28.9,31.6-28.4,41.7c1,20.3,15.6,23.3,32.5,26.7c15,3.1,30.5,6.3,38.3,22.1
		C311.7,604.4,312.3,607.1,312.5,610z M235.3,778.6c-1.1-21.1,19.1-54.3,38.8-86.6c21.6-35.6,44-72.3,35.6-89.7
		c-7-14.5-21.2-17.8-34.9-21.1c-16-3.8-31-7.3-32.1-28.2c-0.5-10.8,13-26.2,27.4-42.4c17.1-19.4,36.6-41.3,34.3-58.4
		c-3.4-25-20.8-48.3-36.1-68.8c-19.7-26.4-36.7-49.2-19.9-68.1c16.2-18.3,64.1-7.3,110.4,3.3c39.8,9.1,80.9,18.5,99.3,8.5
		c19.4-10.5,32.7-26.1,45.5-41.1c17-19.9,33.1-38.6,60.2-40c50.3-2.5,60.3,25.9,71.9,58.8c7.1,20.3,15.2,43.3,33.7,63.2
		c11.7,12.6,25,24.9,39.1,37.9c39.4,36.4,80.1,74,94.5,124.8l-0.8,0.2l0.8-0.2c10.1,35.6,4.1,74.9-16.4,108
		c-24.9,40-69,67.6-124.2,77.7c-27.2,5-42.6,25.9-58.9,48c-17.8,24.1-36.2,49-71,50.8c-11.2,0.6-22.6-10.3-35.9-22.8
		c-17.4-16.5-37.2-35.3-63.4-36.2c-34.6-1.4-72.3,13.2-105.6,26c-40,15.4-74.5,28.7-88.8,7.7C236.7,786.7,235.6,782.9,235.3,778.6z
		 M313.3,609.9c1,19.5-17.9,50.5-37.6,83c-23.4,38.4-47.5,78.1-35.4,95.9c13.5,19.9,47.4,6.8,86.7-8.3
		c33.4-12.9,71.4-27.5,106.3-26.1c26.8,1,47.7,20.8,64.5,36.7c12.9,12.3,24.1,22.9,34.6,22.4c34-1.7,52.1-26.3,69.6-50.1
		c15.8-21.4,32.2-43.6,60-48.7c54.7-10,98.4-37.3,123-76.9c20.3-32.6,26.2-71.5,16.2-106.6c-14.3-50.3-54.8-87.8-94-124
		c-14.1-13.1-27.5-25.4-39.2-38c-18.7-20.1-26.9-43.3-34.1-63.8c-11.8-33.6-21.2-60.1-70.1-57.7c-26.4,1.3-42.2,19.8-59,39.4
		c-13,15.1-26.4,30.8-46,41.5c-19,10.3-58.6,1.3-100.5-8.4c-45.8-10.5-93.2-21.4-108.7-3.8c-15.8,17.9,0.8,40.1,20,65.9
		c15.5,20.7,33,44.2,36.4,69.6c2.4,17.8-17.3,40.1-34.7,59.8c-14.1,16-27.5,31.1-27,41.2c1,19.6,14.8,22.8,30.7,26.6
		c14.1,3.3,28.7,6.8,36.1,22C312.5,604.1,313.1,606.9,313.3,609.9z M244.3,771.1c-1-20.5,17-52,34.6-82.6
		c19.6-34.1,39.8-69.3,31.6-86.6c-6.6-14-19.9-17.6-32.8-21c-15-4.1-29.3-7.9-30.3-28.1c-0.5-10.8,12.4-25.9,26-41.9
		c15.9-18.6,33.9-39.8,32-56.2c-2.9-23.9-18.6-46.3-32.5-66c-18.1-25.8-33.8-48.1-17.5-66.7c16-18.2,62-8.7,106.5,0.4
		c37.8,7.8,76.8,15.9,95,6.1c18.5-10,31.5-24.5,44-38.6c16.8-18.9,32.7-36.7,59.1-38c49.7-2.5,60.8,25.2,73.6,57.3
		c7.6,19.1,16.3,40.7,34.1,59.5c10.7,11.3,22.6,22.5,35.2,34.4c37.8,35.5,80.6,75.6,94.6,127.5l-0.8,0.2l0.8-0.2
		c9.6,35.5,3.5,74.6-16.7,107.3c-24.2,39.1-66.7,66.6-119.7,77.4c-26.2,5.3-42.3,26.1-58,46.2c-18.1,23.2-36.8,47.2-71.1,49
		c-11.2,0.6-22.6-9.8-35.7-21.7c-16.9-15.3-36-32.7-60.9-33.8c-32.9-1.5-68.7,11.3-100.2,22.6c-39.1,14-72.9,26.1-87.3,5.4
		C245.7,779.7,244.5,775.7,244.3,771.1z M314.1,609.9c1,19.2-16,48.6-33.7,79.5c-21.2,37-43.2,75.2-30.9,92.7
		c13.7,19.6,46.9,7.7,85.3-6.1c31.7-11.4,67.7-24.3,100.9-22.7c25.6,1.1,44.9,18.7,62,34.2c12.9,11.7,24,21.8,34.5,21.3
		c33.5-1.7,51.9-25.4,69.8-48.3c15.8-20.3,32.2-41.4,59-46.8c52.6-10.7,94.7-37.9,118.6-76.6c20-32.3,26-70.9,16.5-106
		c-13.9-51.4-54.7-89.7-94.1-126.7c-12.6-11.9-24.6-23-35.3-34.4c-18.1-19.1-26.8-40.9-34.5-60.1c-13.1-32.7-23.5-58.6-71.9-56.2
		c-25.7,1.3-41.3,18.9-57.9,37.5c-12.6,14.2-25.7,28.8-44.5,39c-18.7,10-56.3,2.3-96.2-5.9c-44-9.1-89.5-18.5-104.8-1
		c-15.4,17.6-0.1,39.3,17.6,64.5c14,19.9,29.9,42.5,32.8,66.8c2.1,17.3-15.4,37.7-32.4,57.6c-13.4,15.7-26.1,30.5-25.6,40.7
		c0.9,18.9,13.9,22.4,29,26.5c13.2,3.6,26.9,7.3,33.9,22C313.3,603.8,313.9,606.7,314.1,609.9z M253.2,763.5
		c-1-20,14.9-49.6,30.4-78.5c17.5-32.6,35.6-66.3,27.6-83.5c-6.2-13.4-18.6-17.2-30.6-21c-14.1-4.4-27.5-8.6-28.5-27.9
		c-0.5-10.8,11.7-25.7,24.6-41.4c14.7-17.9,31.3-38.2,29.7-54.1c-2.4-22.8-16.5-44.2-28.9-63.1c-16.6-25.2-30.9-47-15-65.3
		c15.8-18.2,59.9-10.2,102.6-2.4c35.8,6.5,72.8,13.2,90.7,3.7c17.7-9.4,30.3-23,42.5-36.1c16.7-17.9,32.4-34.8,58.1-36.1
		c49.2-2.5,60.8,23.2,75.6,55.8c8.1,17.8,17.2,38,34.4,55.9c9.6,10,20,19.9,31,30.4c38.2,36.3,81.5,77.5,95.1,130.7
		c9,35.4,2.8,74.2-17,106.7c-23.4,38.3-64.3,65.6-115.2,77.1c-25.1,5.7-41.3,25.3-56.9,44.3c-18.4,22.4-37.4,45.5-71.3,47.2
		c-11.2,0.6-22.5-9.3-35.6-20.6c-16.3-14.1-34.8-30.2-58.4-31.3c-31.1-1.6-65,9.5-94.8,19.4c-38.3,12.6-71.3,23.5-85.9,3.1
		C254.7,772.8,253.4,768.4,253.2,763.5z M314.9,609.9c0.9,18.7-14,46.7-29.8,75.9c-19.1,35.5-38.8,72.3-26.5,89.5
		c13.9,19.4,46.4,8.7,84-3.7c30-9.9,64-21.1,95.4-19.4c24.3,1.2,43,17.4,59.5,31.8c12.8,11.1,23.9,20.7,34.3,20.2
		c33.1-1.7,51.9-24.5,70-46.5c15.8-19.2,32.2-39.1,57.9-44.9c50.4-11.4,90.9-38.5,114.1-76.3c19.6-32,25.8-70.4,16.8-105.3l0.8-0.2
		l-0.8,0.2c-13.5-52.8-56.6-93.7-94.6-129.9c-11-10.5-21.5-20.4-31.1-30.4c-17.3-18.1-26.6-38.4-34.7-56.4
		c-14.5-31.9-25.9-57.2-73.9-54.8c-25,1.2-40.5,17.9-56.9,35.6c-12.3,13.2-25,26.9-43,36.4c-18.4,9.8-54,3.3-91.8-3.5
		c-42.2-7.7-85.9-15.6-101,1.8c-15,17.3-1.1,38.6,15.1,63.2c12.5,19.1,26.8,40.7,29.2,63.9c1.8,16.7-14.4,36.3-30.1,55.4
		c-12.7,15.4-24.7,30-24.2,40.2c0.9,18.2,13.1,22,27.2,26.3c12.3,3.8,25.1,7.8,31.7,21.9C314.1,603.5,314.7,606.6,314.9,609.9z
		 M262,755.7c-1-19.3,12.9-47.2,26.3-74.3c15.5-31.1,31.4-63.3,23.6-80.3c-5.9-12.8-17.3-16.9-28.4-20.9
		c-13.2-4.7-25.7-9.2-26.7-27.8c-0.5-10.9,10.9-25.4,23.1-40.9c14.2-18,28.8-36.5,27.4-51.9c-1.9-21.7-14.4-42.2-25.4-60.3
		c-15-24.6-27.9-45.9-12.4-63.9c15.6-18.1,57.9-11.6,98.8-5.3c33.8,5.2,68.7,10.6,86.3,1.4c16.8-8.8,29.1-21.4,40.9-33.6
		c16.5-17,32.1-33,57.1-34.2c48.8-2.4,61.6,22.6,77.7,54.4c8.4,16.6,18,35.3,34.4,52.1c8.3,8.5,17.1,16.9,26.4,25.9
		c38.8,37.3,82.8,79.6,96,134.4c16.6,69-22.6,156.6-128.1,182.9c-24.1,6-40.2,24.5-55.8,42.4c-18.7,21.5-38.1,43.8-71.6,45.4
		c-11.2,0.6-22.5-8.7-35.5-19.5c-15.7-12.9-33.5-27.6-55.9-28.9c-29.3-1.7-61.1,7.8-89.1,16.2c-37.5,11.2-69.9,20.9-84.7,0.7
		C263.7,765.7,262.3,761.1,262,755.7z M315.8,610c0.9,18.3-12.2,44.6-25.9,72.2c-16.9,34.1-34.5,69.4-22,86.3
		c14.1,19.2,46,9.7,82.8-1.3c28.2-8.4,60.1-18,89.7-16.2c23,1.3,41,16.2,56.9,29.3c12.8,10.5,23.8,19.6,34.3,19.1
		c32.7-1.6,51.8-23.6,70.3-44.8c15.8-18.1,32.1-36.8,56.7-42.9c104.4-26,143.2-112.5,126.8-180.7l0.8-0.2l-0.8,0.2
		c-13.1-54.4-56.9-96.4-95.5-133.6c-9.3-8.9-18.1-17.4-26.4-25.9c-16.6-17-26.2-35.9-34.7-52.5c-15.9-31.2-28.5-55.8-76.1-53.4
		c-24.3,1.2-39.6,17-55.9,33.7c-12,12.3-24.3,24.9-41.4,33.9c-18.1,9.5-51.7,4.3-87.4-1.2c-40.4-6.2-82.3-12.6-97.2,4.7
		c-14.7,17-2,37.8,12.6,61.8c11.1,18.2,23.7,38.9,25.7,61c1.4,16.1-13.4,34.9-27.8,53.1c-11.9,15.2-23.2,29.5-22.7,39.7
		c0.9,17.5,12.3,21.5,25.5,26.2c11.4,4.1,23.3,8.3,29.4,21.8C314.9,603.3,315.6,606.5,315.8,610z M270.8,747.8
		c-0.9-18.7,10.8-44.6,22.3-70c13.4-29.6,27.2-60.2,19.7-77.1c-5.5-12.3-16.1-16.6-26.3-20.8c-12.3-5.1-24-9.8-24.9-27.7
		c-0.5-10.9,10.2-25.2,21.6-40.4c12.9-17.2,26.2-34.9,25.2-49.7c-1.5-20.6-12.3-40.1-21.9-57.3c-13.4-24.1-25-44.9-9.8-62.5
		c15.4-18.1,55.9-13.1,95.1-8.3c31.8,3.9,64.6,8,81.9-1c15.9-8.3,27.8-19.9,39.3-31.1c16.4-16,31.9-31.1,56.1-32.3
		c48.4-2.4,62.4,22.1,80.2,53.1c8.7,15.3,18.6,32.6,34.2,48.2c6.8,6.8,13.7,13.6,21.1,20.7c39.7,38.4,84.7,82,97.5,138.8l-0.9,0.2
		l0.9-0.2c8.2,36.6,1.5,74.8-19,107.7c-22.4,35.9-58.7,61.6-104.9,74.3c-23,6.3-39,23.7-54.5,40.4c-19.1,20.7-38.9,42.1-72,43.7
		c-11.2,0.6-22.4-8.2-35.4-18.3c-15.1-11.8-32.2-25.1-53.4-26.5c-27.5-1.8-57.3,6.1-83.6,13c-36.7,9.7-68.4,18.2-83.5-1.8
		C272.6,758.7,271.1,753.6,270.8,747.8z M316.6,610.2c0.9,17.8-10.3,42.4-22,68.3c-14.8,32.7-30.1,66.6-17.5,83.2
		c14.4,19,45.5,10.8,81.6,1.2c26.4-7,56.3-14.9,84.2-13.1c21.7,1.4,39,15,54.4,26.9c12.7,9.9,23.7,18.5,34.2,17.9
		c32.4-1.6,51.9-22.7,70.8-43.2c15.7-17,31.9-34.5,55.3-40.9c45.8-12.6,81.7-38,103.8-73.5c20.3-32.5,27-70.2,18.8-106.3
		c-12.7-56.3-57.5-99.6-97-137.9c-7.4-7.2-14.4-13.9-21.1-20.7c-15.7-15.8-25.7-33.2-34.4-48.6c-17.4-30.5-31.2-54.6-78.5-52.2
		c-23.6,1.2-38.8,16.1-55,31.8c-11.6,11.3-23.6,23-39.7,31.4c-17.7,9.2-49.4,5.3-82.9,1.1c-38.7-4.8-78.7-9.7-93.5,7.7
		c-14.3,16.8-3,37.1,10,60.6c9.7,17.4,20.6,37.1,22.1,58.1c1.1,15.5-12.4,33.5-25.6,50.9c-11.2,14.9-21.8,29-21.3,39.2
		c0.8,16.8,11.5,21.1,23.8,26.2c10.6,4.3,21.5,8.8,27.2,21.7C315.7,603,316.4,606.5,316.6,610.2z M266.3,551.9
		c-0.5-10.9,9.5-25,20.1-39.9c11.7-16.4,23.7-33.3,23-47.5c0,0,0,0,0-0.1c-1-19.4-10.3-38-18.5-54.4c-11.8-23.5-21.9-43.9-7.2-61.3
		c15.3-18.1,54-14.6,91.4-11.3c29.7,2.7,60.5,5.4,77.4-3.2c15-7.7,26.5-18.3,37.6-28.6c16.3-15,31.7-29.2,55.2-30.4
		c48.2-2.4,63.5,21.6,82.9,51.9c8.9,13.9,19,29.7,33.6,44.2c4.9,4.8,9.9,9.7,15.1,14.7c40.9,39.7,87.3,84.8,99.8,143.9
		c14.2,67.6-22.3,151.5-119.7,181c-21.8,6.6-37.7,22.8-53.1,38.4c-19.6,19.9-39.8,40.5-72.5,42.1c-11.2,0.6-22.4-7.6-35.3-17.1
		c-14.5-10.6-30.9-22.7-50.8-24.2c-25.7-1.9-53.5,4.4-78,10c-35.9,8.2-67,15.3-82.3-4.4c-13.3-17.2,0-50.1,12.8-82
		c11.3-28.1,23-57.1,15.7-73.9c-5.1-11.7-14.8-16.3-24.1-20.7C277.9,574.1,267.1,569.1,266.3,551.9z M311.1,464.5
		c0.7,14.8-11.5,32-23.3,48.6c-10.4,14.6-20.3,28.5-19.8,38.8c0.8,16.1,10.7,20.7,22.1,26.1c9.7,4.6,19.7,9.3,25,21.6
		c7.6,17.5-4.3,46.8-15.7,75.2c-12.7,31.4-25.8,63.8-13.1,80.2c14.6,18.9,45.1,11.9,80.5,3.8c24.6-5.6,52.5-12,78.5-10.1
		c20.4,1.5,37,13.7,51.7,24.5c12.7,9.3,23.6,17.3,34.2,16.8c32.1-1.6,52.1-21.9,71.4-41.6c15.5-15.8,31.6-32.1,53.8-38.9
		c96.4-29.2,132.6-112.1,118.5-179l0.9-0.2l-0.9,0.2c-12.3-58.6-58.5-103.5-99.3-143.1c-5.1-5-10.2-9.9-15.1-14.7
		c-14.8-14.6-24.9-30.5-33.9-44.5c-19.1-29.9-34.1-53.5-81.3-51.1c-22.9,1.1-38.1,15.1-54.1,30c-11.2,10.3-22.8,21-38,28.8
		c-17.3,8.9-47,6.2-78.3,3.4c-37-3.3-75.2-6.7-89.9,10.6c-14,16.5-4.1,36.4,7.4,59.4C300.7,425.9,310.1,444.6,311.1,464.5
		C311.1,464.4,311.1,464.4,311.1,464.5z M271,551.7c-0.5-11,8.7-24.8,18.6-39.5c10.5-15.6,21.3-31.7,20.8-45.3
		c-0.6-18.3-8-35.1-15.1-51.3c-10.1-23-18.9-42.9-4.5-60c15.2-18.1,52.1-16.2,87.8-14.3c27.7,1.4,56.3,2.9,72.8-5.4
		c14.1-7.1,25.2-16.7,35.9-26c16.2-14.1,31.5-27.4,54.4-28.5c48.2-2.4,64.9,21.1,86,51c9.4,13.2,19,26.8,32.6,40
		c2.6,2.5,5.2,5.1,7.9,7.6c42.7,41.3,91.1,88.1,103.2,150.2l-0.9,0.2l0.9-0.2c7,35.9,0.2,73.4-19.1,105.5
		c-20.8,34.7-54.2,60.5-96.5,74.5c-20.6,6.9-36.3,21.8-51.5,36.3c-20.1,19.1-40.8,38.9-73.3,40.6c-11.3,0.6-22.4-7.1-35.3-15.9
		c-13.9-9.5-29.6-20.3-48.2-21.8c-23.9-2-49.6,2.8-72.2,7.1c-35.2,6.7-65.6,12.4-81.2-7.1c-13.5-17-2.4-48.5,8.3-79
		c9.3-26.5,18.9-53.9,11.8-70.5c-4.7-11.1-13.5-15.9-22-20.6C281.7,573.5,271.8,568.1,271,551.7z M312.1,465.6c0,0.4,0,0.8,0.1,1.2
		c0.5,14.2-10.5,30.6-21.1,46.4c-9.7,14.4-18.8,28-18.3,38.4c0.8,15.4,9.8,20.4,20.3,26.1c8.8,4.8,17.8,9.7,22.8,21.4
		c7.3,17.3-2.4,45-11.8,71.8c-10.5,30-21.4,61.1-8.5,77.3c14.9,18.8,44.8,13.1,79.5,6.5c22.8-4.3,48.6-9.2,72.7-7.2
		c19.1,1.6,35,12.5,49.1,22.1c12.7,8.7,23.6,16.1,34.3,15.6c31.9-1.6,52.4-21.2,72.2-40.1c15.3-14.6,31.1-29.7,52.1-36.7
		c41.9-13.9,75-39.5,95.6-73.8c19.1-31.8,25.8-68.8,18.8-104.3c-12-61.6-60.2-108.2-102.7-149.3c-2.7-2.6-5.3-5.1-7.9-7.6
		c-13.7-13.3-23.9-27.6-32.8-40.3c-20.9-29.4-37.3-52.6-84.5-50.2c-22.3,1.1-37.4,14.2-53.4,28.1c-10.8,9.4-21.9,19.1-36.2,26.3
		c-16.9,8.5-44.5,7.1-73.7,5.6c-35.3-1.8-71.7-3.7-86.3,13.7c-13.7,16.3-5.1,35.7,4.8,58.2C303.6,430.2,311.2,447.4,312.1,465.6z
		 M275.7,551.5c-0.6-11.1,8-24.7,17-39.1c9.3-14.8,18.8-30,18.7-43.1c-0.2-17.1-6.1-32.9-11.8-48.2c-8.5-22.6-15.8-42-1.7-58.9
		c15.1-18.1,50.3-17.8,84.3-17.5c25.6,0.2,52,0.5,68.1-7.5c13.2-6.5,23.8-15.1,34-23.5c16.2-13.1,31.4-25.6,53.7-26.7
		c48.3-2.4,66.6,20.8,89.8,50.3c9.2,11.7,18.7,23.7,31.1,35.6c42.5,40.6,95.5,91.1,107.3,157.1c13.8,76.5-32,150.1-111.4,179.1
		c-19.3,7.1-34.7,20.8-49.5,34c-20.6,18.5-42,37.5-74.4,39.2c-11.3,0.6-23-6.8-35.4-14.7c-13.2-8.4-28.2-17.9-45.5-19.5
		c-22-2.1-44.5,1.2-66.3,4.4c-34.5,5.1-64.3,9.4-80.2-10c-13.7-16.7-4.9-46.9,3.6-76.1c7.2-24.9,14.8-50.6,8-67
		c-4.3-10.5-12.2-15.6-19.9-20.4C285.5,572.9,276.5,567.1,275.7,551.5z M313,466.3c0,1,0.1,2,0.1,3c0.2,13.6-9.6,29-19,44
		c-8.9,14.1-17.3,27.5-16.7,38c0.7,14.8,9.4,20.3,18.6,26.1c7.9,5,16,10.2,20.5,21.2c7,17-0.6,43-7.9,68.2
		c-8.4,28.8-17.1,58.5-4,74.5c15.3,18.7,44.6,14.4,78.6,9.4c21.9-3.2,44.5-6.5,66.7-4.4c17.8,1.7,32.9,11.3,46.3,19.8
		c12.7,8,23.6,14.9,34.4,14.4c31.8-1.6,52.9-20.5,73.4-38.7c15-13.4,30.4-27.2,50.1-34.4C732.7,678.8,778,606,764.4,530.3l0,0
		c-11.8-65.4-64.5-115.7-106.8-156.1c-12.5-11.9-22-24-31.3-35.7c-22.9-29-40.9-52-88.3-49.6c-21.7,1.1-36.8,13.3-52.7,26.3
		c-10.3,8.4-21,17.1-34.3,23.7c-16.5,8.2-41.9,7.9-68.9,7.7c-33.6-0.3-68.4-0.6-82.9,16.9c-13.4,16.1-6.2,35.1,2,57.2
		C306.4,434.4,312.2,450,313,466.3z M280.4,551.2c-0.6-11.2,7.2-24.6,15.4-38.7c8.1-13.9,16.4-28.3,16.6-40.8
		c0.2-15.9-4.3-30.6-8.6-44.9c-6.7-22.1-12.6-41.2,1.1-57.9c15-18.3,48.6-19.6,81-20.8c24.5-0.9,47.6-1.8,63.2-9.4
		c12.2-5.9,22.2-13.5,32-20.9c16.2-12.2,31.5-23.7,53.2-24.8c48.7-2.4,68.8,20.7,94.3,50c8.7,10,17.7,20.4,28.7,30.7
		c44.5,41.7,93,91.6,103.6,156.3c5.8,35.2-1,72-19.1,103.5c-19.2,33.5-49.7,59.3-88.1,74.7c-17.9,7.2-32.8,19.6-47.1,31.6
		c-21.4,17.9-43.5,36.3-76,37.9c-11.4,0.6-23.2-6.2-35.6-13.4c-12.5-7.3-26.7-15.5-42.8-17.2c-20-2.2-40.4-0.1-60.2,1.9
		c-33.9,3.4-63.2,6.3-79.5-13.1c-13.9-16.5-7.4-45.5-1.1-73.5c5.2-23.2,10.7-47.2,4.2-63.4c-4-9.9-11-15.2-17.7-20.2
		C289.3,572.3,281.1,566.2,280.4,551.2z M314,466.4c0.1,1.8,0.1,3.5,0.1,5.3c-0.2,12.9-8.6,27.5-16.8,41.6
		c-8.1,13.9-15.7,27.1-15.2,37.7c0.7,14.1,8.6,20,16.9,26.2c7,5.2,14.2,10.6,18.3,21c6.7,16.7,1.2,40.9-4.1,64.4
		c-6.2,27.6-12.7,56.1,0.7,72c15.7,18.7,44.6,15.8,78,12.4c19.8-2,40.4-4,60.5-1.9c16.4,1.8,30.8,10.1,43.5,17.5
		c12.2,7.1,23.7,13.7,34.6,13.2c31.9-1.6,53.8-19.9,74.9-37.5c14.5-12.1,29.4-24.6,47.6-31.9c38.1-15.3,68.3-40.9,87.3-74
		c17.9-31.1,24.6-67.5,18.8-102.3l0.9-0.1l-0.9,0.1c-10.5-64.2-58.7-113.8-103-155.3c-11.1-10.4-20.1-20.8-28.9-30.8
		c-25.1-28.9-45-51.8-92.9-49.4c-21.2,1.1-36.3,12.4-52.2,24.5c-9.8,7.4-20,15.1-32.3,21.1c-15.9,7.8-39.2,8.7-63.9,9.6
		c-32,1.2-65.2,2.5-79.7,20.2c-13.1,16-7.4,34.7-0.8,56.3C309.3,439.2,313.3,452.3,314,466.4z M285.1,551
		c-0.6-11.3,6.4-24.5,13.8-38.5c6.9-13.1,14-26.5,14.5-38.3c0.5-14.5-2.6-28.2-5.6-41.4c-4.8-20.9-9.3-40.6,4.2-57.1
		c15-18.5,47-21.5,78-24.3c22.1-2.1,43.1-4,58.1-11.2c11.1-5.3,20.6-11.9,29.7-18.3c16.3-11.3,31.6-22,52.9-23.1
		c49.6-2.5,71.8,20.8,100,50.2c7.8,8.2,16,16.7,25.3,25.2c43.9,40.3,90.1,90.2,99.8,155.4c11,74.1-30.4,145.3-103,177.3
		c-16.3,7.2-30.5,18.2-44.1,28.9c-22.3,17.4-45.3,35.4-78.1,37c-11.6,0.6-23.4-5.6-35.8-12.1c-12.4-6.5-25.2-13.2-39.9-15
		c-17.9-2.2-36.1-1.3-53.7-0.4c-33.4,1.6-62.3,3-79.2-16.4c-14.2-16.4-10-44.2-5.9-71.1c3.3-21.4,6.7-43.6,0.5-59.4
		c-3.6-9.3-9.7-14.7-15.6-19.9C293.1,571.7,285.8,565.2,285.1,551z M315.1,465.9c0.1,2.8,0.2,5.5,0.1,8.4
		c-0.5,12.2-7.7,25.9-14.7,39.1c-7.3,13.7-14.1,26.7-13.6,37.6c0.7,13.5,7.7,19.8,15.2,26.4c6.1,5.4,12.3,10.9,16.1,20.6
		c6.3,16.3,2.9,38.7-0.4,60.3c-4,26.5-8.2,53.9,5.5,69.7c16.3,18.8,44.8,17.4,77.8,15.8c17.7-0.9,35.9-1.7,54,0.4
		c15,1.8,28.5,8.9,40.5,15.2c12.3,6.4,23.8,12.5,34.9,11.9c32.3-1.6,55.1-19.4,77.1-36.6c13.8-10.7,28-21.9,44.5-29.1
		c71.9-31.6,112.9-102.2,102-175.4l0.9-0.1l-0.9,0.1c-9.6-64.7-55.6-114.3-99.3-154.4c-9.3-8.6-17.5-17.1-25.3-25.3
		c-27.8-29.1-49.8-52.1-98.6-49.7c-20.7,1-35.9,11.6-52,22.7c-9.2,6.4-18.8,13-30,18.4c-15.3,7.3-36.3,9.3-58.6,11.3
		c-30.6,2.8-62.2,5.8-76.8,23.7c-12.9,15.9-8.7,34.3-3.8,55.6C311.9,443.1,314.5,454.2,315.1,465.9z M289.8,550.7
		c-0.6-11.5,5.6-24.6,12.2-38.4c5.7-12.1,11.7-24.7,12.4-35.7c0.9-13.1-1-25.5-2.7-37.6c-3-20.7-5.9-40.2,7.4-56.7
		c15.2-18.9,45.8-23.6,75.5-28.2c19.6-3,38.2-5.9,52.4-12.6c9.9-4.6,18.6-10.2,27.1-15.5c16.5-10.4,32-20.3,52.9-21.4
		c51.1-2.6,75.9,21.3,107.4,51.5c6.4,6.1,12.9,12.4,20,18.8c58.5,52.5,89.1,101.7,96.1,154.6l-0.9,0.1l0.9-0.1
		c4.6,35-1.9,70.1-19,101.5c-17.6,32.2-45.2,58.1-79.8,74.9c-14.4,7-27.5,16.5-40.1,25.7c-23.5,17.1-47.8,34.8-81.3,36.5
		c-11.8,0.6-23.7-5-36.3-10.8c-11.5-5.4-23.4-10.9-36.8-12.7c-15.5-2.1-31.3-2.2-46.5-2.3c-31.9-0.2-61.9-0.5-79.5-20.1
		c-14.7-16.4-12.8-43.2-10.9-69.1c1.4-19.5,2.8-39.7-2.9-55.1c-3.2-8.7-8.4-14.2-13.4-19.6C296.9,571.2,290.5,564.3,289.8,550.7z
		 M316.2,463.5c0.2,4.3,0.2,8.7-0.1,13.2c-0.7,11.4-6.8,24.1-12.6,36.4c-6.4,13.6-12.5,26.5-12,37.6c0.6,13,6.9,19.6,13.5,26.6
		c5.1,5.5,10.5,11.2,13.8,20.1c5.8,15.7,4.4,36.1,3,55.8c-1.8,25.6-3.7,52,10.5,67.8c17,19,45.4,19.2,78.2,19.5
		c15.3,0.1,31.1,0.2,46.7,2.4c13.6,1.8,25.6,7.4,37.3,12.9c12.4,5.8,24.1,11.2,35.5,10.7c33-1.6,57.1-19.2,80.4-36.2
		c12.7-9.3,25.9-18.9,40.4-25.9c34.3-16.6,61.6-42.2,79-74.1c16.9-31,23.4-65.7,18.8-100.4c-7-52.5-37.3-101.3-95.5-153.6
		c-7.1-6.4-13.7-12.7-20.1-18.8c-31.1-29.9-55.7-53.5-106.1-51c-20.4,1-35.8,10.8-52.1,21.1c-8.5,5.4-17.3,11-27.3,15.6
		c-14.4,6.8-33.1,9.7-52.9,12.7c-29.3,4.5-59.6,9.2-74.4,27.6c-12.8,15.9-10.1,34.2-7,55.3C314.6,446.8,315.8,455,316.2,463.5z
		 M294.5,550.5c-0.6-11.9,5.1-25.5,10.5-38.7c4.6-11.1,9.4-22.6,10.3-32.9c1.1-11.5,0.5-22.5-0.2-33.1c-1.2-20.7-2.3-40.3,10.8-56.9
		c15.5-19.5,45.1-26.2,73.8-32.6c16.9-3.8,32.8-7.4,45.9-13.4c8.5-3.9,16.3-8.3,23.8-12.7c16.9-9.7,32.9-18.8,53.6-19.8
		c53.7-2.7,83.4,23.8,117.7,54.6c3.9,3.5,7.8,7,11.9,10.6c55,48.3,86.1,100.1,92.3,153.8l-0.9,0.1l0.9-0.1
		c8.3,71.6-28.8,140.4-94.6,175.4c-12,6.4-23.4,14.2-34.4,21.7c-25.2,17.3-51.3,35.1-86.2,36.9c-12.2,0.6-24.3-4.3-37.2-9.5
		c-10.5-4.3-21.4-8.7-33.3-10.5c-12.8-1.9-25.7-2.8-38.2-3.7c-32.1-2.2-62.4-4.2-80.9-24.3c-15.3-16.6-15.8-42.7-16.3-67.9
		c-0.4-17.4-0.7-35.4-5.9-50c-2.8-7.9-7.1-13.6-11.3-19C300.8,570.8,295.2,563.5,294.5,550.5z M317.4,453c0.4,8.4,0.6,17.1-0.3,26.1
		c-1,10.5-5.8,22.1-10.5,33.4c-5.4,13-11,26.4-10.4,37.9c0.6,12.5,6.1,19.6,11.8,27.1c4.2,5.5,8.6,11.3,11.5,19.5
		c5.3,14.8,5.7,33,6,50.5c0.5,24.9,1,50.7,15.9,66.8c18.1,19.6,48,21.6,79.7,23.8c12.5,0.9,25.5,1.7,38.4,3.7
		c12,1.8,23,6.3,33.7,10.6c12.7,5.1,24.7,10,36.5,9.4c34.4-1.7,60.3-19.4,85.3-36.6c11.1-7.6,22.5-15.4,34.6-21.8
		c65.2-34.6,101.9-102.8,93.7-173.6c-6.2-53.3-37.1-104.7-91.7-152.7c-4.1-3.6-8-7.1-11.9-10.6c-35.4-31.7-63.4-56.8-116.4-54.1
		c-20.3,1-36.1,10-52.8,19.6c-7.6,4.3-15.4,8.8-24,12.7c-13.3,6.1-29.3,9.7-46.3,13.5c-28.4,6.4-57.7,13-72.8,32
		c-12.8,16.1-11.7,34.4-10.5,55.7C317.1,448.2,317.2,450.6,317.4,453z M299.2,550.3c-0.6-12.4,4.2-26.2,8.9-39.5
		c3.5-9.9,7-20,8.2-29.3c1.2-9.5,1.6-18.6,1.9-27.5c0.8-21.2,1.5-41.2,14.9-58.2c16.3-20.7,45.5-29.6,73.8-38.2
		c13.5-4.1,26.3-8,37.7-13.1c6.7-3,13.2-6.3,19.4-9.4c17.7-9,34.5-17.6,55.5-18.6c58.5-2.9,92.5,26.2,131.8,60
		c36.5,31.3,81.4,83.3,88.6,153l0,0c3.4,34.4-3.2,68.8-19,99.5c-16,31-40.7,56.9-71.4,74.9c-8.6,5-17.1,10.6-25.4,16
		c-27.9,18.2-56.8,37.1-94.4,39c-12.8,0.6-25.5-3.7-38.9-8.3c-9.3-3.2-18.9-6.5-29-8.2c-9.2-1.6-18.6-2.8-27.6-4
		c-33.2-4.4-64.6-8.5-84.7-29.6c-16.3-17.1-19.5-43.1-22.6-68.2c-1.8-14.8-3.7-30.1-8.2-43.3c-2.4-7.1-5.8-12.7-9-18.1
		C304.6,570.7,299.8,562.8,299.2,550.3z M738.1,529.6c-7.1-69.2-51.7-120.8-88-151.9c-39-33.5-72.7-62.5-130.5-59.6
		c-20.7,1-37.3,9.5-54.8,18.4c-6.2,3.2-12.7,6.5-19.4,9.5c-11.5,5.1-24.3,9-37.9,13.1c-28,8.5-57.1,17.3-73,37.6
		c-13,16.6-13.7,35.4-14.5,57.2c-0.3,8.9-0.7,18.1-1.9,27.6c-1.2,9.5-4.8,19.7-8.3,29.7c-4.6,13.2-9.4,26.8-8.8,38.9
		c0.6,12.1,5.3,19.8,10.2,28c3.3,5.5,6.7,11.1,9.2,18.4c4.6,13.4,6.5,28.8,8.3,43.7c3,24.8,6.2,50.5,22.1,67.2
		c19.7,20.7,50.8,24.8,83.7,29.1c9,1.2,18.4,2.4,27.6,4c10.2,1.8,19.9,5.1,29.3,8.3c13.2,4.5,25.7,8.8,38.2,8.2
		c37.1-1.9,65.8-20.6,93.5-38.7c8.3-5.4,16.8-11,25.5-16c30.5-17.8,54.9-43.5,70.7-74.2C734.9,597.7,741.5,563.6,738.1,529.6
		L738.1,529.6z M303.9,550c-0.7-13.5,3.5-28,7.5-42c2.4-8.5,4.7-16.4,6-24.2c1.1-6.3,1.9-12.6,2.7-18.7c3-22.8,5.9-44.4,20.1-62.7
		c18.1-23.4,48.8-35.2,78.5-46.6c8.7-3.3,16.9-6.5,24.8-9.9c4.1-1.8,8-3.6,12-5.3c19.5-8.8,38-17.2,60.3-18.3
		c53.7-2.7,92.4,20,133.9,54.8c49.9,41.8,80,95.9,84.8,152.2l0,0c5.7,69-27.4,135.5-86.2,173.5c-2.9,1.9-5.8,3.8-8.7,5.7
		c-32.8,21.4-66.7,43.5-110.2,45.6c-14,0.7-27.8-3.1-42.3-7.2c-7.4-2.1-15.1-4.2-23-5.7c-3.6-0.7-7.2-1.4-10.7-2
		c-36.8-6.9-71.5-13.5-94.7-37.2c-18.4-18.7-24.7-46-30.7-72.5c-2.5-10.9-5.1-22.2-8.5-32.7c-1.9-6-4.3-11.2-6.6-16.2
		C308.6,571.2,304.5,562.4,303.9,550z M732.8,529.5c-4.7-55.9-34.6-109.5-84.2-151c-57-47.8-94.3-56.3-132.7-54.4
		c-22,1.1-40.3,9.4-59.7,18.2c-3.9,1.8-7.9,3.6-12,5.3c-8,3.5-16.2,6.6-24.9,10c-29.5,11.3-60,23.1-77.7,46
		c-13.9,18-16.8,39.3-19.8,61.9c-0.8,6.1-1.6,12.3-2.7,18.7c-1.3,7.9-3.7,16.3-6,24.4c-4,13.9-8,28.2-7.4,41.4
		c0.6,12,4.6,20.7,8.8,29.9c2.3,5.1,4.7,10.3,6.7,16.4c3.4,10.5,6,21.9,8.5,32.8c6,26.2,12.2,53.4,30.3,71.7
		c22.9,23.3,57.3,29.8,93.8,36.7c3.6,0.7,7.1,1.3,10.7,2c7.9,1.5,15.6,3.7,23.1,5.8c14.4,4,28,7.8,41.8,7.1
		c43-2.1,76.7-24.1,109.3-45.4c2.9-1.9,5.8-3.8,8.7-5.7C705.7,663.7,738.5,597.7,732.8,529.5L732.8,529.5z M308.6,549.8
		c-0.8-16.8,3.1-34,6.9-50.7c1-4.5,2-8.7,2.8-12.9c5.5-26.6,11.2-54.1,28.9-77.1c22.5-29.5,59.3-46.7,95.2-61.8
		c22.4-9.4,44.5-18,69.7-19.2c48.7-2.4,91.9,13.4,136.1,49.7c48.3,39.4,77.1,93.1,81.1,151.4v0c4.5,68.2-26.2,132.7-82.1,172.5
		c-55.8,39.8-92.4,46.4-118.1,47.7c-17.6,0.9-35.3-3.2-52.5-7.1c-3.4-0.8-6.8-1.6-10.2-2.3c-33.8-7.5-72-18.6-98.6-44.8
		c-25-24.6-35.9-60.1-46.3-94.4l-1.4-4.5c-1.1-3.7-2.3-7.2-3.4-10.6C312.9,574.2,309.3,563.3,308.6,549.8z M727.6,529.3
		c-3.9-57.8-32.5-111.1-80.4-150.2c-43.9-36-86.7-51.7-134.9-49.3c-24.9,1.2-46.9,9.7-69.1,19.1c-35.6,15-72.2,32.1-94.5,61.2
		c-17.4,22.7-23.1,50-28.6,76.4c-0.9,4.2-1.8,8.4-2.9,12.9c-3.8,16.5-7.7,33.7-6.8,50.2c0.7,13.3,4.3,24,8.1,35.4
		c1.1,3.4,2.3,7,3.5,10.7l1.4,4.5c10.4,34.1,21.2,69.4,45.9,93.7c26.3,25.9,64.2,36.9,97.7,44.4c3.4,0.7,6.8,1.5,10.2,2.3
		c17,3.9,34.6,7.9,52,7c48.4-2.4,88-26.6,117.2-47.3C701.6,660.8,732,596.9,727.6,529.3L727.6,529.3z M313.3,549.6
		c-5.7-113.2,81.9-210,195.1-215.6c113.2-5.7,210,81.9,215.6,195.1S642.2,739,529,744.7C415.7,750.3,319,662.8,313.3,549.6z
		 M722.3,529.2c-5.6-112.3-101.5-199.1-213.8-193.5c-112.3,5.6-199.1,101.5-193.5,213.8c5.6,112.3,101.5,199.1,213.8,193.5
		C641.1,737.3,727.9,641.4,722.3,529.2z"/>
	<g>
		<g>
			<g>
				<g>
					<defs>
						<path id="SVGID_2_" d="M551.8,428.5L413.9,461l0.2,36l0.1,0l0.8,118.2c-7.4-3.1-17.4-2.9-26.7,1.3
							c-15.3,6.9-23.6,21.8-18.4,33.3c5.2,11.5,21.8,15.2,37.2,8.3c10.9-5,18.1-14,19.5-22.9h0.1v-0.5c0.2-1.9,0.3-3.9,0-5.8
							l-0.8-115.7l114.6-27.5l0.6,99.2c-7.5-3.2-17.5-3-27,1.3c-15.3,6.9-23.5,21.8-18.4,33.4c5.2,11.5,21.8,15.2,37.2,8.3
							c12.8-5.8,20.5-17.1,19.7-27.4h0.1l-0.9-137.6l0.1,0L551.8,428.5z M540.5,474l-114.6,27.5l0-7.3l114.6-28.2L540.5,474z"/>
					</defs>
					<clipPath id="SVGID_3_">
						<use xlink:href="#SVGID_2_"  style="overflow:visible;"/>
					</clipPath>
					<rect x="425.8" y="501.1" class="st3" width="114.7" height="0.3"/>
					<rect x="425.8" y="499.6" class="st4" width="114.7" height="1.5"/>
					<rect x="425.8" y="498.2" class="st5" width="114.7" height="1.5"/>
					<rect x="425.8" y="496.7" class="st6" width="114.7" height="1.5"/>
					<rect x="425.8" y="495.2" class="st7" width="114.7" height="1.5"/>
					<rect x="425.8" y="493.8" class="st8" width="114.7" height="1.5"/>
					<rect x="425.8" y="492.3" class="st8" width="114.7" height="1.5"/>
					<rect x="425.8" y="490.8" class="st9" width="114.7" height="1.5"/>
					<rect x="425.8" y="489.3" class="st10" width="114.7" height="1.5"/>
					<rect x="425.8" y="487.9" class="st10" width="114.7" height="1.5"/>
					<rect x="425.8" y="486.4" class="st11" width="114.7" height="1.5"/>
					<rect x="425.8" y="484.9" class="st12" width="114.7" height="1.5"/>
					<rect x="425.8" y="483.5" class="st12" width="114.7" height="1.5"/>
					<rect x="425.8" y="482" class="st13" width="114.7" height="1.5"/>
					<rect x="425.8" y="480.5" class="st14" width="114.7" height="1.5"/>
					<rect x="425.8" y="479.1" class="st15" width="114.7" height="1.5"/>
					<rect x="425.8" y="477.6" class="st16" width="114.7" height="1.5"/>
					<rect x="425.8" y="476.1" class="st17" width="114.7" height="1.5"/>
					<rect x="425.8" y="474.7" class="st18" width="114.7" height="1.5"/>
					<rect x="425.8" y="473.2" class="st19" width="114.7" height="1.5"/>
					<rect x="425.8" y="471.7" class="st20" width="114.7" height="1.5"/>
					<rect x="425.8" y="470.2" class="st21" width="114.7" height="1.5"/>
					<rect x="425.8" y="468.8" class="st22" width="114.7" height="1.5"/>
					<rect x="425.8" y="467.3" class="st23" width="114.7" height="1.5"/>
					<rect x="425.8" y="465.9" class="st24" width="114.7" height="1.4"/>
					<rect x="364.7" y="661.2" class="st25" width="188.8" height="3.7"/>
					<rect x="364.7" y="659.8" class="st25" width="188.8" height="1.5"/>
					<rect x="364.7" y="658.3" class="st26" width="188.8" height="1.5"/>
					<rect x="364.7" y="656.8" class="st26" width="188.8" height="1.5"/>
					<rect x="364.7" y="655.4" class="st27" width="188.8" height="1.5"/>
					<rect x="364.7" y="653.9" class="st28" width="188.8" height="1.5"/>
					<rect x="364.7" y="652.4" class="st29" width="188.8" height="1.5"/>
					<rect x="364.7" y="651" class="st30" width="188.8" height="1.5"/>
					<rect x="364.7" y="649.5" class="st31" width="188.8" height="1.5"/>
					<rect x="364.7" y="648" class="st32" width="188.8" height="1.5"/>
					<rect x="364.7" y="646.5" class="st32" width="188.8" height="1.5"/>
					<rect x="364.7" y="645.1" class="st33" width="188.8" height="1.5"/>
					<rect x="364.7" y="643.6" class="st33" width="188.8" height="1.5"/>
					<rect x="364.7" y="642.1" class="st34" width="188.8" height="1.5"/>
					<rect x="364.7" y="640.7" class="st35" width="188.8" height="1.5"/>
					<rect x="364.7" y="639.2" class="st35" width="188.8" height="1.5"/>
					<rect x="364.7" y="637.7" class="st36" width="188.8" height="1.5"/>
					<rect x="364.7" y="636.3" class="st37" width="188.8" height="1.5"/>
					<rect x="364.7" y="634.8" class="st38" width="188.8" height="1.5"/>
					<rect x="364.7" y="633.3" class="st39" width="188.8" height="1.5"/>
					<rect x="364.7" y="631.9" class="st40" width="188.8" height="1.5"/>
					<rect x="364.7" y="630.4" class="st41" width="188.8" height="1.5"/>
					<rect x="364.7" y="628.9" class="st41" width="188.8" height="1.5"/>
					<rect x="364.7" y="627.4" class="st42" width="188.8" height="1.5"/>
					<rect x="364.7" y="626" class="st43" width="188.8" height="1.5"/>
					<rect x="364.7" y="624.5" class="st44" width="188.8" height="1.5"/>
					<rect x="364.7" y="623" class="st44" width="188.8" height="1.5"/>
					<rect x="364.7" y="621.6" class="st45" width="188.8" height="1.5"/>
					<rect x="364.7" y="620.1" class="st46" width="188.8" height="1.5"/>
					<rect x="364.7" y="618.6" class="st46" width="188.8" height="1.5"/>
					<rect x="364.7" y="617.2" class="st47" width="188.8" height="1.5"/>
					<rect x="364.7" y="615.7" class="st48" width="188.8" height="1.5"/>
					<rect x="364.7" y="614.2" class="st49" width="188.8" height="1.5"/>
					<rect x="364.7" y="612.8" class="st50" width="188.8" height="1.5"/>
					<rect x="364.7" y="611.3" class="st50" width="188.8" height="1.5"/>
					<rect x="364.7" y="609.8" class="st51" width="188.8" height="1.5"/>
					<rect x="364.7" y="608.3" class="st51" width="188.8" height="1.5"/>
					<rect x="364.7" y="606.9" class="st52" width="188.8" height="1.5"/>
					<rect x="364.7" y="605.4" class="st52" width="188.8" height="1.5"/>
					<rect x="364.7" y="603.9" class="st53" width="188.8" height="1.5"/>
					<rect x="364.7" y="602.5" class="st54" width="188.8" height="1.5"/>
					<rect x="364.7" y="601" class="st54" width="188.8" height="1.5"/>
					<rect x="364.7" y="599.5" class="st55" width="188.8" height="1.5"/>
					<rect x="364.7" y="598.1" class="st56" width="188.8" height="1.5"/>
					<rect x="364.7" y="596.6" class="st56" width="188.8" height="1.5"/>
					<rect x="364.7" y="595.1" class="st57" width="188.8" height="1.5"/>
					<rect x="364.7" y="593.7" class="st58" width="188.8" height="1.5"/>
					<rect x="364.7" y="592.2" class="st59" width="188.8" height="1.5"/>
					<rect x="364.7" y="590.7" class="st60" width="188.8" height="1.5"/>
					<rect x="364.7" y="589.2" class="st61" width="188.8" height="1.5"/>
					<rect x="364.7" y="587.8" class="st62" width="188.8" height="1.5"/>
					<rect x="364.7" y="586.3" class="st62" width="188.8" height="1.5"/>
					<rect x="364.7" y="584.8" class="st63" width="188.8" height="1.5"/>
					<rect x="364.7" y="583.4" class="st64" width="188.8" height="1.5"/>
					<rect x="364.7" y="581.9" class="st65" width="188.8" height="1.5"/>
					<rect x="364.7" y="580.4" class="st66" width="188.8" height="1.5"/>
					<rect x="364.7" y="579" class="st67" width="188.8" height="1.5"/>
					<rect x="364.7" y="577.5" class="st68" width="188.8" height="1.5"/>
					<rect x="364.7" y="576" class="st69" width="188.8" height="1.5"/>
					<rect x="364.7" y="574.6" class="st70" width="188.8" height="1.5"/>
					<rect x="364.7" y="573.1" class="st71" width="188.8" height="1.5"/>
					<rect x="364.7" y="571.6" class="st72" width="188.8" height="1.5"/>
					<rect x="364.7" y="570.1" class="st72" width="188.8" height="1.5"/>
					<rect x="364.7" y="568.7" class="st73" width="188.8" height="1.5"/>
					<rect x="364.7" y="567.2" class="st74" width="188.8" height="1.5"/>
					<rect x="364.7" y="565.7" class="st74" width="188.8" height="1.5"/>
					<rect x="364.7" y="564.3" class="st75" width="188.8" height="1.5"/>
					<rect x="364.7" y="562.8" class="st76" width="188.8" height="1.5"/>
					<rect x="364.7" y="561.3" class="st77" width="188.8" height="1.5"/>
					<rect x="364.7" y="559.9" class="st78" width="188.8" height="1.5"/>
					<rect x="364.7" y="558.4" class="st79" width="188.8" height="1.5"/>
					<rect x="364.7" y="556.9" class="st80" width="188.8" height="1.5"/>
					<rect x="364.7" y="555.5" class="st81" width="188.8" height="1.5"/>
					<rect x="364.7" y="554" class="st82" width="188.8" height="1.5"/>
					<rect x="364.7" y="552.5" class="st82" width="188.8" height="1.5"/>
					<rect x="364.7" y="551" class="st83" width="188.8" height="1.5"/>
					<rect x="364.7" y="549.6" class="st84" width="188.8" height="1.5"/>
					<rect x="364.7" y="548.1" class="st84" width="188.8" height="1.5"/>
					<rect x="364.7" y="546.6" class="st85" width="188.8" height="1.5"/>
					<rect x="364.7" y="545.2" class="st86" width="188.8" height="1.5"/>
					<rect x="364.7" y="543.7" class="st86" width="188.8" height="1.5"/>
					<rect x="364.7" y="542.2" class="st87" width="188.8" height="1.5"/>
					<rect x="364.7" y="540.8" class="st87" width="188.8" height="1.5"/>
					<rect x="364.7" y="539.3" class="st88" width="188.8" height="1.5"/>
					<rect x="364.7" y="537.8" class="st89" width="188.8" height="1.5"/>
					<rect x="364.7" y="536.4" class="st90" width="188.8" height="1.5"/>
					<rect x="364.7" y="534.9" class="st91" width="188.8" height="1.5"/>
					<rect x="364.7" y="533.4" class="st92" width="188.8" height="1.5"/>
					<rect x="364.7" y="532" class="st93" width="188.8" height="1.5"/>
					<rect x="364.7" y="530.5" class="st94" width="188.8" height="1.5"/>
					<rect x="364.7" y="529" class="st95" width="188.8" height="1.5"/>
					<rect x="364.7" y="527.5" class="st96" width="188.8" height="1.5"/>
					<rect x="364.7" y="526.1" class="st97" width="188.8" height="1.5"/>
					<rect x="364.7" y="524.6" class="st98" width="188.8" height="1.5"/>
					<rect x="364.7" y="523.1" class="st99" width="188.8" height="1.5"/>
					<rect x="364.7" y="521.7" class="st100" width="188.8" height="1.5"/>
					<rect x="364.7" y="520.2" class="st101" width="188.8" height="1.5"/>
					<rect x="364.7" y="518.7" class="st102" width="188.8" height="1.5"/>
					<rect x="364.7" y="517.3" class="st103" width="188.8" height="1.5"/>
					<rect x="364.7" y="515.8" class="st104" width="188.8" height="1.5"/>
					<rect x="364.7" y="514.3" class="st105" width="188.8" height="1.5"/>
					<rect x="364.7" y="512.9" class="st106" width="188.8" height="1.5"/>
					<rect x="364.7" y="511.4" class="st107" width="188.8" height="1.5"/>
					<rect x="364.7" y="509.9" class="st107" width="188.8" height="1.5"/>
					<rect x="364.7" y="508.4" class="st108" width="188.8" height="1.5"/>
					<rect x="364.7" y="507" class="st109" width="188.8" height="1.5"/>
					<rect x="364.7" y="505.5" class="st109" width="188.8" height="1.5"/>
					<rect x="364.7" y="504" class="st110" width="188.8" height="1.5"/>
					<rect x="364.7" y="502.6" class="st3" width="188.8" height="1.5"/>
					<rect x="364.7" y="501.1" class="st3" width="188.8" height="1.5"/>
					<rect x="364.7" y="499.6" class="st4" width="188.8" height="1.5"/>
					<rect x="364.7" y="498.2" class="st5" width="188.8" height="1.5"/>
					<rect x="364.7" y="496.7" class="st6" width="188.8" height="1.5"/>
					<rect x="364.7" y="495.2" class="st7" width="188.8" height="1.5"/>
					<rect x="364.7" y="493.8" class="st8" width="188.8" height="1.5"/>
					<rect x="364.7" y="492.3" class="st8" width="188.8" height="1.5"/>
					<rect x="364.7" y="490.8" class="st9" width="188.8" height="1.5"/>
					<rect x="364.7" y="489.3" class="st10" width="188.8" height="1.5"/>
					<rect x="364.7" y="487.9" class="st10" width="188.8" height="1.5"/>
					<rect x="364.7" y="486.4" class="st11" width="188.8" height="1.5"/>
					<rect x="364.7" y="484.9" class="st12" width="188.8" height="1.5"/>
					<rect x="364.7" y="483.5" class="st12" width="188.8" height="1.5"/>
					<rect x="364.7" y="482" class="st13" width="188.8" height="1.5"/>
					<rect x="364.7" y="480.5" class="st14" width="188.8" height="1.5"/>
					<rect x="364.7" y="479.1" class="st15" width="188.8" height="1.5"/>
					<rect x="364.7" y="477.6" class="st16" width="188.8" height="1.5"/>
					<rect x="364.7" y="476.1" class="st17" width="188.8" height="1.5"/>
					<rect x="364.7" y="474.7" class="st18" width="188.8" height="1.5"/>
					<rect x="364.7" y="473.2" class="st19" width="188.8" height="1.5"/>
					<rect x="364.7" y="471.7" class="st20" width="188.8" height="1.5"/>
					<rect x="364.7" y="470.2" class="st21" width="188.8" height="1.5"/>
					<rect x="364.7" y="468.8" class="st22" width="188.8" height="1.5"/>
					<rect x="364.7" y="467.3" class="st23" width="188.8" height="1.5"/>
					<rect x="364.7" y="465.8" class="st24" width="188.8" height="1.5"/>
					<rect x="364.7" y="464.4" class="st111" width="188.8" height="1.5"/>
					<rect x="364.7" y="462.9" class="st112" width="188.8" height="1.5"/>
					<rect x="364.7" y="461.4" class="st112" width="188.8" height="1.5"/>
					<rect x="364.7" y="460" class="st113" width="188.8" height="1.5"/>
					<rect x="364.7" y="458.5" class="st114" width="188.8" height="1.5"/>
					<rect x="364.7" y="457" class="st114" width="188.8" height="1.5"/>
					<rect x="364.7" y="455.6" class="st115" width="188.8" height="1.5"/>
					<rect x="364.7" y="454.1" class="st116" width="188.8" height="1.5"/>
					<rect x="364.7" y="452.6" class="st116" width="188.8" height="1.5"/>
					<rect x="364.7" y="451.1" class="st117" width="188.8" height="1.5"/>
					<rect x="364.7" y="449.7" class="st118" width="188.8" height="1.5"/>
					<rect x="364.7" y="448.2" class="st119" width="188.8" height="1.5"/>
					<rect x="364.7" y="446.7" class="st120" width="188.8" height="1.5"/>
					<rect x="364.7" y="445.3" class="st121" width="188.8" height="1.5"/>
					<rect x="364.7" y="443.8" class="st121" width="188.8" height="1.5"/>
					<rect x="364.7" y="442.3" class="st122" width="188.8" height="1.5"/>
					<rect x="364.7" y="440.9" class="st123" width="188.8" height="1.5"/>
					<rect x="364.7" y="439.4" class="st124" width="188.8" height="1.5"/>
					<rect x="364.7" y="437.9" class="st125" width="188.8" height="1.5"/>
					<rect x="364.7" y="436.5" class="st126" width="188.8" height="1.5"/>
					<rect x="364.7" y="435" class="st127" width="188.8" height="1.5"/>
					<rect x="364.7" y="428.5" class="st127" width="188.8" height="6.5"/>
				</g>
			</g>
		</g>
		<g>
			<g>
				<g>
					<defs>
						<path id="SVGID_4_" d="M656.7,612c-4.7,13.2-22.9,18.8-40.5,12.6c-15.5-5.5-25.4-18.3-24.5-30.4l-12.9-172.4l9.1-0.7
							l11.9,158.8c8-6.1,20.8-7.8,33.5-3.3C650.9,582.9,661.4,598.7,656.7,612z"/>
					</defs>
					<clipPath id="SVGID_5_">
						<use xlink:href="#SVGID_4_"  style="overflow:visible;"/>
					</clipPath>
					<polygon class="st128" points="661.4,447.7 587.2,421.1 661.4,421.1 					"/>
					<polygon class="st128" points="661.4,448.9 583.8,421.1 587.2,421.1 661.4,447.7 					"/>
					<polygon class="st129" points="661.4,450.1 580.4,421.1 583.8,421.1 661.4,448.9 					"/>
					<polygon class="st129" points="661.4,451.3 578.8,421.7 578.8,421.1 580.4,421.1 661.4,450.1 					"/>
					<polygon class="st130" points="661.4,452.5 578.8,423 578.8,421.7 661.4,451.3 					"/>
					<polygon class="st131" points="661.4,453.8 578.8,424.2 578.8,423 661.4,452.5 					"/>
					<polygon class="st132" points="661.4,455 578.8,425.4 578.8,424.2 661.4,453.8 					"/>
					<polygon class="st133" points="661.4,456.2 578.8,426.6 578.8,425.4 661.4,455 					"/>
					<polygon class="st134" points="661.4,457.4 578.8,427.8 578.8,426.6 661.4,456.2 					"/>
					<polygon class="st135" points="661.4,458.6 578.8,429.1 578.8,427.8 661.4,457.4 					"/>
					<polygon class="st135" points="661.4,459.9 578.8,430.3 578.8,429.1 661.4,458.6 					"/>
					<polygon class="st136" points="661.4,461.1 578.8,431.5 578.8,430.3 661.4,459.9 					"/>
					<polygon class="st136" points="661.4,462.3 578.8,432.7 578.8,431.5 661.4,461.1 					"/>
					<polygon class="st137" points="661.4,463.5 578.8,433.9 578.8,432.7 661.4,462.3 					"/>
					<polygon class="st138" points="661.4,464.7 578.8,435.1 578.8,433.9 661.4,463.5 					"/>
					<polygon class="st138" points="661.4,466 578.8,436.4 578.8,435.1 661.4,464.7 					"/>
					<polygon class="st139" points="661.4,467.2 578.8,437.6 578.8,436.4 661.4,466 					"/>
					<polygon class="st140" points="661.4,468.4 578.8,438.8 578.8,437.6 661.4,467.2 					"/>
					<polygon class="st141" points="661.4,469.6 578.8,440 578.8,438.8 661.4,468.4 					"/>
					<polygon class="st142" points="661.4,470.8 578.8,441.2 578.8,440 661.4,469.6 					"/>
					<polygon class="st143" points="661.4,472 578.8,442.5 578.8,441.2 661.4,470.8 					"/>
					<polygon class="st144" points="661.4,473.3 578.8,443.7 578.8,442.5 661.4,472 					"/>
					<polygon class="st144" points="661.4,474.5 578.8,444.9 578.8,443.7 661.4,473.3 					"/>
					<polygon class="st145" points="661.4,475.7 578.8,446.1 578.8,444.9 661.4,474.5 					"/>
					<polygon class="st146" points="661.4,476.9 578.8,447.3 578.8,446.1 661.4,475.7 					"/>
					<polygon class="st147" points="661.4,478.1 578.8,448.6 578.8,447.3 661.4,476.9 					"/>
					<polygon class="st147" points="661.4,479.4 578.8,449.8 578.8,448.6 661.4,478.1 					"/>
					<polygon class="st148" points="661.4,480.6 578.8,451 578.8,449.8 661.4,479.4 					"/>
					<polygon class="st149" points="661.4,481.8 578.8,452.2 578.8,451 661.4,480.6 					"/>
					<polygon class="st149" points="661.4,483 578.8,453.4 578.8,452.2 661.4,481.8 					"/>
					<polygon class="st150" points="661.4,484.2 578.8,454.6 578.8,453.4 661.4,483 					"/>
					<polygon class="st151" points="661.4,485.5 578.8,455.9 578.8,454.6 661.4,484.2 					"/>
					<polygon class="st152" points="661.4,486.7 578.8,457.1 578.8,455.9 661.4,485.5 					"/>
					<polygon class="st153" points="661.4,487.9 578.8,458.3 578.8,457.1 661.4,486.7 					"/>
					<polygon class="st153" points="661.4,489.1 578.8,459.5 578.8,458.3 661.4,487.9 					"/>
					<polygon class="st154" points="661.4,490.3 578.8,460.7 578.8,459.5 661.4,489.1 					"/>
					<polygon class="st154" points="661.4,491.6 578.8,462 578.8,460.7 661.4,490.3 					"/>
					<polygon class="st155" points="661.4,492.8 578.8,463.2 578.8,462 661.4,491.6 					"/>
					<polygon class="st155" points="661.4,494 578.8,464.4 578.8,463.2 661.4,492.8 					"/>
					<polygon class="st156" points="661.4,495.2 578.8,465.6 578.8,464.4 661.4,494 					"/>
					<polygon class="st157" points="661.4,496.4 578.8,466.8 578.8,465.6 661.4,495.2 					"/>
					<polygon class="st157" points="661.4,497.6 578.8,468.1 578.8,466.8 661.4,496.4 					"/>
					<polygon class="st158" points="661.4,498.9 578.8,469.3 578.8,468.1 661.4,497.6 					"/>
					<polygon class="st159" points="661.4,500.1 578.8,470.5 578.8,469.3 661.4,498.9 					"/>
					<polygon class="st159" points="661.4,501.3 578.8,471.7 578.8,470.5 661.4,500.1 					"/>
					<polygon class="st160" points="661.4,502.5 578.8,472.9 578.8,471.7 661.4,501.3 					"/>
					<polygon class="st161" points="661.4,503.7 578.8,474.1 578.8,472.9 661.4,502.5 					"/>
					<polygon class="st162" points="661.4,505 578.8,475.4 578.8,474.1 661.4,503.7 					"/>
					<polygon class="st163" points="661.4,506.2 578.8,476.6 578.8,475.4 661.4,505 					"/>
					<polygon class="st164" points="661.4,507.4 578.8,477.8 578.8,476.6 661.4,506.2 					"/>
					<polygon class="st165" points="661.4,508.6 578.8,479 578.8,477.8 661.4,507.4 					"/>
					<polygon class="st165" points="661.4,509.8 578.8,480.2 578.8,479 661.4,508.6 					"/>
					<polygon class="st166" points="661.4,511.1 578.8,481.5 578.8,480.2 661.4,509.8 					"/>
					<polygon class="st167" points="661.4,512.3 578.8,482.7 578.8,481.5 661.4,511.1 					"/>
					<polygon class="st168" points="661.4,513.5 578.8,483.9 578.8,482.7 661.4,512.3 					"/>
					<polygon class="st169" points="661.4,514.7 578.8,485.1 578.8,483.9 661.4,513.5 					"/>
					<polygon class="st170" points="661.4,515.9 578.8,486.3 578.8,485.1 661.4,514.7 					"/>
					<polygon class="st171" points="661.4,517.1 578.8,487.6 578.8,486.3 661.4,515.9 					"/>
					<polygon class="st172" points="661.4,518.4 578.8,488.8 578.8,487.6 661.4,517.1 					"/>
					<polygon class="st173" points="661.4,519.6 578.8,490 578.8,488.8 661.4,518.4 					"/>
					<polygon class="st174" points="661.4,520.8 578.8,491.2 578.8,490 661.4,519.6 					"/>
					<polygon class="st175" points="661.4,522 578.8,492.4 578.8,491.2 661.4,520.8 					"/>
					<polygon class="st175" points="661.4,523.2 578.8,493.6 578.8,492.4 661.4,522 					"/>
					<polygon class="st176" points="661.4,524.5 578.8,494.9 578.8,493.6 661.4,523.2 					"/>
					<polygon class="st177" points="661.4,525.7 578.8,496.1 578.8,494.9 661.4,524.5 					"/>
					<polygon class="st177" points="661.4,526.9 578.8,497.3 578.8,496.1 661.4,525.7 					"/>
					<polygon class="st178" points="661.4,528.1 578.8,498.5 578.8,497.3 661.4,526.9 					"/>
					<polygon class="st179" points="661.4,529.3 578.8,499.7 578.8,498.5 661.4,528.1 					"/>
					<polygon class="st180" points="661.4,530.6 578.8,501 578.8,499.7 661.4,529.3 					"/>
					<polygon class="st181" points="661.4,531.8 578.8,502.2 578.8,501 661.4,530.6 					"/>
					<polygon class="st182" points="661.4,533 578.8,503.4 578.8,502.2 661.4,531.8 					"/>
					<polygon class="st183" points="661.4,534.2 578.8,504.6 578.8,503.4 661.4,533 					"/>
					<polygon class="st184" points="661.4,535.4 578.8,505.8 578.8,504.6 661.4,534.2 					"/>
					<polygon class="st185" points="661.4,536.6 578.8,507.1 578.8,505.8 661.4,535.4 					"/>
					<polygon class="st185" points="661.4,537.9 578.8,508.3 578.8,507.1 661.4,536.6 					"/>
					<polygon class="st186" points="661.4,539.1 578.8,509.5 578.8,508.3 661.4,537.9 					"/>
					<polygon class="st187" points="661.4,540.3 578.8,510.7 578.8,509.5 661.4,539.1 					"/>
					<polygon class="st187" points="661.4,541.5 578.8,511.9 578.8,510.7 661.4,540.3 					"/>
					<polygon class="st188" points="661.4,542.7 578.8,513.1 578.8,511.9 661.4,541.5 					"/>
					<polygon class="st189" points="661.4,544 578.8,514.4 578.8,513.1 661.4,542.7 					"/>
					<polygon class="st189" points="661.4,545.2 578.8,515.6 578.8,514.4 661.4,544 					"/>
					<polygon class="st190" points="661.4,546.4 578.8,516.8 578.8,515.6 661.4,545.2 					"/>
					<polygon class="st190" points="661.4,547.6 578.8,518 578.8,516.8 661.4,546.4 					"/>
					<polygon class="st191" points="661.4,548.8 578.8,519.2 578.8,518 661.4,547.6 					"/>
					<polygon class="st192" points="661.4,550.1 578.8,520.5 578.8,519.2 661.4,548.8 					"/>
					<polygon class="st193" points="661.4,551.3 578.8,521.7 578.8,520.5 661.4,550.1 					"/>
					<polygon class="st194" points="661.4,552.5 578.8,522.9 578.8,521.7 661.4,551.3 					"/>
					<polygon class="st195" points="661.4,553.7 578.8,524.1 578.8,522.9 661.4,552.5 					"/>
					<polygon class="st196" points="661.4,554.9 578.8,525.3 578.8,524.1 661.4,553.7 					"/>
					<polygon class="st197" points="661.4,556.1 578.8,526.6 578.8,525.3 661.4,554.9 					"/>
					<polygon class="st198" points="661.4,557.4 578.8,527.8 578.8,526.6 661.4,556.1 					"/>
					<polygon class="st199" points="661.4,558.6 578.8,529 578.8,527.8 661.4,557.4 					"/>
					<polygon class="st200" points="661.4,559.8 578.8,530.2 578.8,529 661.4,558.6 					"/>
					<polygon class="st201" points="661.4,561 578.8,531.4 578.8,530.2 661.4,559.8 					"/>
					<polygon class="st202" points="661.4,562.2 578.8,532.6 578.8,531.4 661.4,561 					"/>
					<polygon class="st203" points="661.4,563.5 578.8,533.9 578.8,532.6 661.4,562.2 					"/>
					<polygon class="st204" points="661.4,564.7 578.8,535.1 578.8,533.9 661.4,563.5 					"/>
					<polygon class="st205" points="661.4,565.9 578.8,536.3 578.8,535.1 661.4,564.7 					"/>
					<polygon class="st206" points="661.4,567.1 578.8,537.5 578.8,536.3 661.4,565.9 					"/>
					<polygon class="st207" points="661.4,568.3 578.8,538.7 578.8,537.5 661.4,567.1 					"/>
					<polygon class="st208" points="661.4,569.6 578.8,540 578.8,538.7 661.4,568.3 					"/>
					<polygon class="st209" points="661.4,570.8 578.8,541.2 578.8,540 661.4,569.6 					"/>
					<polygon class="st210" points="661.4,572 578.8,542.4 578.8,541.2 661.4,570.8 					"/>
					<polygon class="st210" points="661.4,573.2 578.8,543.6 578.8,542.4 661.4,572 					"/>
					<polygon class="st211" points="661.4,574.4 578.8,544.8 578.8,543.6 661.4,573.2 					"/>
					<polygon class="st212" points="661.4,575.6 578.8,546.1 578.8,544.8 661.4,574.4 					"/>
					<polygon class="st212" points="661.4,576.9 578.8,547.3 578.8,546.1 661.4,575.6 					"/>
					<polygon class="st213" points="661.4,578.1 578.8,548.5 578.8,547.3 661.4,576.9 					"/>
					<polygon class="st214" points="661.4,579.3 578.8,549.7 578.8,548.5 661.4,578.1 					"/>
					<polygon class="st214" points="661.4,580.5 578.8,550.9 578.8,549.7 661.4,579.3 					"/>
					<polygon class="st215" points="661.4,581.7 578.8,552.1 578.8,550.9 661.4,580.5 					"/>
					<polygon class="st216" points="661.4,583 578.8,553.4 578.8,552.1 661.4,581.7 					"/>
					<polygon class="st217" points="661.4,584.2 578.8,554.6 578.8,553.4 661.4,583 					"/>
					<polygon class="st218" points="661.4,585.4 578.8,555.8 578.8,554.6 661.4,584.2 					"/>
					<polygon class="st219" points="661.4,586.6 578.8,557 578.8,555.8 661.4,585.4 					"/>
					<polygon class="st219" points="661.4,587.8 578.8,558.2 578.8,557 661.4,586.6 					"/>
					<polygon class="st220" points="661.4,589.1 578.8,559.5 578.8,558.2 661.4,587.8 					"/>
					<polygon class="st221" points="661.4,590.3 578.8,560.7 578.8,559.5 661.4,589.1 					"/>
					<polygon class="st221" points="661.4,591.5 578.8,561.9 578.8,560.7 661.4,590.3 					"/>
					<polygon class="st222" points="661.4,592.7 578.8,563.1 578.8,561.9 661.4,591.5 					"/>
					<polygon class="st223" points="661.4,593.9 578.8,564.3 578.8,563.1 661.4,592.7 					"/>
					<polygon class="st223" points="661.4,595.1 578.8,565.6 578.8,564.3 661.4,593.9 					"/>
					<polygon class="st224" points="661.4,596.4 578.8,566.8 578.8,565.6 661.4,595.1 					"/>
					<polygon class="st225" points="661.4,597.6 578.8,568 578.8,566.8 661.4,596.4 					"/>
					<polygon class="st226" points="661.4,598.8 578.8,569.2 578.8,568 661.4,597.6 					"/>
					<polygon class="st227" points="661.4,600 578.8,570.4 578.8,569.2 661.4,598.8 					"/>
					<polygon class="st228" points="661.4,601.2 578.8,571.6 578.8,570.4 661.4,600 					"/>
					<polygon class="st229" points="661.4,602.5 578.8,572.9 578.8,571.6 661.4,601.2 					"/>
					<polygon class="st230" points="661.4,603.7 578.8,574.1 578.8,572.9 661.4,602.5 					"/>
					<polygon class="st231" points="661.4,604.8 661.4,604.9 578.8,575.3 578.8,574.1 661.4,603.7 					"/>
					<polygon class="st232" points="661.4,604.9 661,606 578.8,576.5 578.8,575.3 					"/>
					<polygon class="st233" points="661,606 660.6,607 578.8,577.7 578.8,576.5 					"/>
					<polygon class="st234" points="660.6,607 660.2,608.1 578.8,579 578.8,577.7 					"/>
					<polygon class="st235" points="660.2,608.1 659.8,609.2 578.8,580.2 578.8,579 					"/>
					<polygon class="st236" points="659.8,609.2 659.5,610.3 578.8,581.4 578.8,580.2 					"/>
					<polygon class="st237" points="659.5,610.3 659.1,611.4 578.8,582.6 578.8,581.4 					"/>
					<polygon class="st237" points="659.1,611.4 658.7,612.4 578.8,583.8 578.8,582.6 					"/>
					<polygon class="st238" points="658.7,612.4 658.3,613.5 578.8,585.1 578.8,583.8 					"/>
					<polygon class="st239" points="658.3,613.5 657.9,614.6 578.8,586.3 578.8,585.1 					"/>
					<polygon class="st239" points="657.9,614.6 657.5,615.7 578.8,587.5 578.8,586.3 					"/>
					<polygon class="st240" points="657.5,615.7 657.1,616.8 578.8,588.7 578.8,587.5 					"/>
					<polygon class="st241" points="657.1,616.8 656.7,617.8 578.8,589.9 578.8,588.7 					"/>
					<polygon class="st241" points="656.7,617.8 656.4,618.9 578.8,591.1 578.8,589.9 					"/>
					<polygon class="st242" points="656.4,618.9 656,620 578.8,592.4 578.8,591.1 					"/>
					<polygon class="st243" points="656,620 655.6,621.1 578.8,593.6 578.8,592.4 					"/>
					<polygon class="st244" points="655.6,621.1 655.2,622.2 578.8,594.8 578.8,593.6 					"/>
					<polygon class="st245" points="655.2,622.2 654.8,623.2 578.8,596 578.8,594.8 					"/>
					<polygon class="st246" points="654.8,623.2 654.4,624.3 578.8,597.2 578.8,596 					"/>
					<polygon class="st246" points="654.4,624.3 654,625.4 578.8,598.5 578.8,597.2 					"/>
					<polygon class="st247" points="654,625.4 653.7,626.5 578.8,599.7 578.8,598.5 					"/>
					<polygon class="st248" points="653.7,626.5 653.3,627.6 578.8,600.9 578.8,599.7 					"/>
					<polygon class="st249" points="653.3,627.6 652.9,628.6 578.8,602.1 578.8,600.9 					"/>
					<polygon class="st250" points="652.9,628.6 652.5,629.7 578.8,603.3 578.8,602.1 					"/>
					<polygon class="st251" points="652.5,629.7 652.1,630.8 578.8,604.6 578.8,603.3 					"/>
					<polygon class="st252" points="652.1,630.8 652.1,630.8 648.7,630.8 578.8,605.8 578.8,604.6 					"/>
					<polygon class="st252" points="578.8,605.8 648.7,630.8 578.8,630.8 					"/>
				</g>
			</g>
		</g>
	</g>
</g>
</svg>
